<svg width="278" height="36" viewBox="0 0 278 36" fill="none" xmlns="http://www.w3.org/2000/svg">
<path d="M27.236 29.236C27.236 30.556 27.016 33.284 25.344 33.284C24.024 33.284 23.936 31.524 23.936 28.752V18.324C23.936 13.22 18.48 11.504 12.32 11.504C9.196 11.504 2.33201 12.648 2.33201 17.84C2.33201 20.304 4.092 21.8 6.468 21.8C8.448 21.8 10.252 20.612 10.384 18.104C9.46 17.708 8.844 16.52 8.844 15.42C8.844 13.396 9.94401 11.724 12.32 11.724C15.312 11.724 15.752 14.804 15.752 17.488V20.392C10.736 23.78 0.880005 22.592 0.880005 29.544C0.880005 33.328 3.52001 35.352 7.65601 35.352C11.484 35.352 15.004 33.196 15.796 30.116C16.06 33.592 17.688 35.264 21.252 35.264C25.608 35.264 27.412 33.284 27.412 29.236H27.236ZM12.892 32.536C10.516 32.536 9.81201 29.896 9.81201 27.916C9.81201 22.944 12.584 22.68 15.708 20.656V29.236C15.708 30.776 14.652 32.536 12.892 32.536Z" fill="#373737"/>
<path d="M53.3394 18.632C53.3394 13.792 50.6113 11.548 46.7833 11.548C43.2633 11.548 39.4794 13.088 38.4674 18.72V18.676L38.5993 11.592L26.8513 12.296V12.516L30.3713 12.34V34.78H26.9394V35H41.0633V34.78H38.5113V19.424C39.2593 15.112 41.2393 13.132 43.0873 13.132C45.1553 13.132 45.1553 15.2 45.1553 16.432V34.824H42.6474V35.044H56.7714V34.824H53.3394V18.632Z" fill="#373737"/>
<path d="M81.2934 0.23999L69.5014 0.94399V1.16399L73.0214 0.987988L73.1534 15.86C72.5814 12.692 70.1174 11.548 67.6974 11.548C62.1094 11.548 57.0934 16.124 57.0934 24C57.0934 31.26 61.2734 35.396 66.6854 35.396C70.4254 35.396 72.5374 33.372 73.1534 29.94H73.1974L73.1534 35.044H84.2854V34.824H81.2495L81.2934 0.23999ZM69.2374 34.428C66.9494 34.428 66.0254 31.568 66.0254 23.692C66.0254 14.716 67.1694 12.164 69.3694 12.164C71.2614 12.164 73.1094 14.276 73.1094 17.356V28.884C72.9774 31.92 71.1294 34.428 69.2374 34.428Z" fill="#373737"/>
<path d="M118.333 0.23999L106.541 0.94399V1.16399L110.061 0.987988L110.193 15.86C109.621 12.692 107.157 11.548 104.737 11.548C99.1485 11.548 94.1325 16.124 94.1325 24C94.1325 31.26 98.3125 35.396 103.725 35.396C107.465 35.396 109.577 33.372 110.193 29.94H110.237L110.193 35.044H121.325V34.824H118.289L118.333 0.23999ZM106.277 34.428C103.989 34.428 103.065 31.568 103.065 23.692C103.065 14.716 104.209 12.164 106.409 12.164C108.301 12.164 110.149 14.276 110.149 17.356V28.884C110.017 31.92 108.169 34.428 106.277 34.428Z" fill="#373737"/>
<path d="M145.29 26.684C143.75 29.544 140.714 30.38 138.426 30.38C134.114 30.38 130.77 27.212 130.506 20.964H145.202C146.258 15.376 142.606 11.504 134.95 11.504C127.25 11.504 122.234 16.652 122.234 23.868C122.234 31.084 127.514 35.396 133.542 35.396C139.658 35.396 143.53 31.48 145.466 26.816L145.29 26.684ZM134.95 11.724C138.382 11.724 137.766 17.928 137.37 20.656H130.506C130.506 20.524 130.506 20.348 130.506 20.216C130.506 17.268 131.166 11.724 134.95 11.724Z" fill="#373737"/>
<path d="M166.412 12.076H171.296L164.168 26.508L157.128 12.076H160.824V11.856H144.94V12.076H147.888L159.856 35.88L171.604 12.076H174.816V11.856H166.412V12.076Z" fill="#373737"/>
<path d="M181.845 10.052C184.573 10.052 186.773 7.85199 186.773 5.12399C186.773 2.39599 184.573 0.23999 181.845 0.23999C179.161 0.23999 176.961 2.43999 176.961 5.12399C176.961 7.85199 179.161 10.052 181.845 10.052ZM185.937 16.476L186.025 11.592L174.277 12.296V12.516L177.753 12.34V34.78H174.321V35H189.369V34.78H185.937V16.476Z" fill="#373737"/>
<path d="M203.962 11.724C206.206 11.724 207.394 13.396 207.394 15.376C207.394 16.52 206.778 17.664 205.854 18.104C205.986 20.612 207.746 21.8 209.726 21.8C212.102 21.8 213.906 20.216 213.906 17.752C213.906 12.56 206.998 11.504 203.786 11.504C196.086 11.504 191.07 16.608 191.07 23.824C191.07 31.084 196.35 35.352 202.378 35.352C208.494 35.352 212.366 31.436 214.302 26.772L214.126 26.684C212.586 29.544 209.55 30.38 207.262 30.38C202.818 30.38 199.342 26.948 199.342 20.172C199.342 17.268 200.002 11.724 203.962 11.724Z" fill="#373737"/>
<path d="M239.478 26.684C237.938 29.544 234.902 30.38 232.614 30.38C228.302 30.38 224.958 27.212 224.694 20.964H239.39C240.446 15.376 236.794 11.504 229.138 11.504C221.438 11.504 216.422 16.652 216.422 23.868C216.422 31.084 221.702 35.396 227.73 35.396C233.846 35.396 237.718 31.48 239.654 26.816L239.478 26.684ZM229.138 11.724C232.57 11.724 231.954 17.928 231.558 20.656H224.694C224.694 20.524 224.694 20.348 224.694 20.216C224.694 17.268 225.354 11.724 229.138 11.724Z" fill="#373737"/>
<path d="M248.788 14.98C248.788 13.176 250.504 11.724 253.628 11.724C257.016 11.724 260.888 13.748 262.076 19.38H262.252L261.812 11.592L259.304 12.604C257.72 12.032 255.564 11.548 253.628 11.548C248.216 11.548 242.364 13.572 242.364 18.984C242.364 27.652 258.336 27.124 258.336 31.92C258.336 34.384 255.476 35.176 252.66 35.176C249.492 35.176 243.728 33.46 242.54 25.892H242.364L242.848 35.308L245.84 34.208C248.656 35.044 250.9 35.396 252.66 35.396C258.908 35.396 264.452 33.02 264.452 27.388C264.452 18.72 248.788 20.04 248.788 15.024V14.98Z" fill="#373737"/>
<path d="M272.592 24.352C272.68 17.18 277.916 14.98 277.916 10.14C277.916 7.45599 276.112 5.12399 272.504 2.65999C268.896 5.12399 267.092 7.45599 267.092 10.14C267.092 14.98 272.328 17.18 272.416 24.352H272.592ZM272.504 35.352C275.012 35.352 277.124 33.416 277.124 30.952C277.124 28.532 275.056 26.552 272.504 26.552C269.952 26.552 267.884 28.532 267.884 30.952C267.884 33.372 269.952 35.352 272.504 35.352Z" fill="#373737"/>
</svg>
