<svg width="99" height="33" viewBox="0 0 99 33" fill="none" xmlns="http://www.w3.org/2000/svg">
<path d="M16.6761 14.972C21.0761 14.84 29.3481 14.136 29.3481 8.32797C29.3481 1.24397 19.7121 1.19998 12.0561 1.19998H0.352051V1.41998H4.26805V31.78H0.352051V32H16.2801C26.0041 32 31.3721 28.7 31.3721 23.2C31.3721 16.204 21.3401 15.06 16.6761 15.016V14.972ZM14.4761 1.41998C19.1841 1.41998 20.2841 3.88398 20.2841 8.06398C20.2841 12.728 18.9201 14.928 14.6081 14.928H13.3321V1.41998H14.4761ZM16.2801 31.78C13.4641 31.78 13.3321 30.724 13.3321 26.544V15.148H14.6081C20.4601 15.148 21.3401 18.228 21.3401 23.2C21.3401 28.964 19.8881 31.78 16.2801 31.78Z" fill="url(#paint0_linear_220_4)"/>
<path d="M56.6456 23.684C55.1056 26.544 52.0696 27.38 49.7816 27.38C45.4696 27.38 42.1256 24.212 41.8616 17.964H56.5576C57.6136 12.376 53.9616 8.50397 46.3056 8.50397C38.6056 8.50397 33.5896 13.652 33.5896 20.868C33.5896 28.084 38.8696 32.396 44.8976 32.396C51.0136 32.396 54.8856 28.48 56.8216 23.816L56.6456 23.684ZM46.3056 8.72398C49.7376 8.72398 49.1216 14.928 48.7256 17.656H41.8616C41.8616 17.524 41.8616 17.348 41.8616 17.216C41.8616 14.268 42.5216 8.72398 46.3056 8.72398Z" fill="url(#paint1_linear_220_4)"/>
<path d="M65.9564 11.98C65.9564 10.176 67.6724 8.72398 70.7964 8.72398C74.1844 8.72398 78.0564 10.748 79.2444 16.38H79.4204L78.9804 8.59198L76.4724 9.60398C74.8884 9.03198 72.7324 8.54798 70.7964 8.54798C65.3844 8.54798 59.5324 10.572 59.5324 15.984C59.5324 24.652 75.5044 24.124 75.5044 28.92C75.5044 31.384 72.6444 32.176 69.8284 32.176C66.6604 32.176 60.8964 30.46 59.7084 22.892H59.5324L60.0164 32.308L63.0084 31.208C65.8244 32.044 68.0684 32.396 69.8284 32.396C76.0764 32.396 81.6204 30.02 81.6204 24.388C81.6204 15.72 65.9564 17.04 65.9564 12.024V11.98Z" fill="url(#paint2_linear_220_4)"/>
<path d="M92.2681 32.352C96.844 32.352 98.6481 30.372 98.6481 26.324H98.4281C98.4281 27.776 98.164 30.372 96.1841 30.372C94.3801 30.372 94.1161 28.612 94.1161 25.62V9.07598H98.6481V8.85598H94.1161V0.0999756H93.8961C93.7201 2.29998 93.0161 5.29198 91.8721 6.96398C90.0241 8.32798 87.1641 8.85598 83.7761 8.85598H82.7641V9.07598H85.9761V26.06C85.9761 30.504 88.3081 32.352 92.2681 32.352Z" fill="url(#paint3_linear_220_4)"/>
<defs>
<linearGradient id="paint0_linear_220_4" x1="-0.654762" y1="1.75" x2="27.1076" y2="1.81859" gradientUnits="userSpaceOnUse">
<stop stopColor="#5EDEAA"/>
<stop offset="0.546875" stopColor="#4DE0AB"/>
<stop offset="1" stopColor="#B1DF5D"/>
</linearGradient>
<linearGradient id="paint1_linear_220_4" x1="-0.654762" y1="1.75" x2="27.1076" y2="1.81859" gradientUnits="userSpaceOnUse">
<stop stopColor="#5EDEAA"/>
<stop offset="0.546875" stopColor="#4DE0AB"/>
<stop offset="1" stopColor="#B1DF5D"/>
</linearGradient>
<linearGradient id="paint2_linear_220_4" x1="-0.654762" y1="1.75" x2="27.1076" y2="1.81859" gradientUnits="userSpaceOnUse">
<stop stopColor="#5EDEAA"/>
<stop offset="0.546875" stopColor="#4DE0AB"/>
<stop offset="1" stopColor="#B1DF5D"/>
</linearGradient>
<linearGradient id="paint3_linear_220_4" x1="-0.654762" y1="1.75" x2="27.1076" y2="1.81859" gradientUnits="userSpaceOnUse">
<stop stopColor="#5EDEAA"/>
<stop offset="0.546875" stopColor="#4DE0AB"/>
<stop offset="1" stopColor="#B1DF5D"/>
</linearGradient>
</defs>
</svg>
