<svg width="438" height="97" viewBox="0 0 438 97" fill="none" xmlns="http://www.w3.org/2000/svg">
<path d="M48.601 44.278C61.701 43.885 86.329 41.789 86.329 24.497C86.329 3.406 57.64 3.275 34.846 3.275H0V3.93H11.659V94.32H0V94.975H47.422C76.373 94.975 92.355 85.15 92.355 68.775C92.355 47.946 62.487 44.54 48.601 44.409V44.278ZM42.051 3.93C56.068 3.93 59.343 11.266 59.343 23.711C59.343 37.597 55.282 44.147 42.444 44.147H38.645V3.93H42.051ZM47.422 94.32C39.038 94.32 38.645 91.176 38.645 78.731V44.802H42.444C59.867 44.802 62.487 53.972 62.487 68.775C62.487 85.936 58.164 94.32 47.422 94.32Z" fill="url(#paint0_linear_1_3)"/>
<path d="M167.601 70.216C163.016 78.731 153.977 81.22 147.165 81.22C134.327 81.22 124.371 71.788 123.585 53.186H167.339C170.483 36.549 159.61 25.021 136.816 25.021C113.891 25.021 98.9572 40.348 98.9572 61.832C98.9572 83.316 114.677 96.154 132.624 96.154C150.833 96.154 162.361 84.495 168.125 70.609L167.601 70.216ZM136.816 25.676C147.034 25.676 145.2 44.147 144.021 52.269H123.585C123.585 51.876 123.585 51.352 123.585 50.959C123.585 42.182 125.55 25.676 136.816 25.676Z" fill="url(#paint1_linear_1_3)"/>
<path d="M200.099 96.023C213.723 96.023 219.094 90.128 219.094 78.076H218.439C218.439 82.399 217.653 90.128 211.758 90.128C206.387 90.128 205.601 84.888 205.601 75.98V26.724H219.094V26.069H205.601V0H204.946C204.422 6.55 202.326 15.458 198.92 20.436C193.418 24.497 184.903 26.069 174.816 26.069H171.803V26.724H181.366V77.29C181.366 90.521 188.309 96.023 200.099 96.023Z" fill="url(#paint2_linear_1_3)"/>
<path d="M247.05 96.023C260.674 96.023 266.045 90.128 266.045 78.076H265.39C265.39 82.399 264.604 90.128 258.709 90.128C253.338 90.128 252.552 84.888 252.552 75.98V26.724H266.045V26.069H252.552V0H251.897C251.373 6.55 249.277 15.458 245.871 20.436C240.369 24.497 231.854 26.069 221.767 26.069H218.754V26.724H228.317V77.29C228.317 90.521 235.26 96.023 247.05 96.023Z" fill="url(#paint3_linear_1_3)"/>
<path d="M336.852 70.216C332.267 78.731 323.228 81.22 316.416 81.22C303.578 81.22 293.622 71.788 292.836 53.186H336.59C339.734 36.549 328.861 25.021 306.067 25.021C283.142 25.021 268.208 40.348 268.208 61.832C268.208 83.316 283.928 96.154 301.875 96.154C320.084 96.154 331.612 84.495 337.376 70.609L336.852 70.216ZM306.067 25.676C316.285 25.676 314.451 44.147 313.272 52.269H292.836C292.836 51.876 292.836 51.352 292.836 50.959C292.836 42.182 294.801 25.676 306.067 25.676Z" fill="url(#paint4_linear_1_3)"/>
<path d="M396.598 25.021C387.428 25.021 377.21 31.178 374.328 46.505V46.374L374.721 25.283L339.744 27.379V28.034L350.224 27.51V94.32H340.006V94.975H385.987V94.32H374.459V48.601C376.686 35.763 383.105 29.475 388.345 29.475C391.882 29.475 393.847 32.226 393.847 36.549C393.847 41.134 391.227 44.409 387.297 45.719C387.69 53.186 393.061 56.723 398.956 56.723C407.471 56.723 413.497 50.042 413.497 41.265C413.497 31.571 406.292 25.152 396.598 25.152V25.021Z" fill="url(#paint5_linear_1_3)"/>
<path d="M422.86 96.023C430.72 96.023 437.27 89.997 437.27 82.268C437.27 74.67 430.851 68.513 422.86 68.513C414.869 68.513 408.45 74.67 408.45 82.268C408.45 89.866 414.869 96.023 422.86 96.023Z" fill="url(#paint6_linear_1_3)"/>
<defs>
<linearGradient id="paint0_linear_1_3" x1="-1.048" y1="55.975" x2="442.952" y2="55.975" gradientUnits="userSpaceOnUse">
<stop stopColor="#60DDA8"/>
<stop offset="0.5" stopColor="#3BE0B9"/>
<stop offset="1" stopColor="#B4DE5A"/>
</linearGradient>
<linearGradient id="paint1_linear_1_3" x1="-1.048" y1="55.975" x2="442.952" y2="55.975" gradientUnits="userSpaceOnUse">
<stop stopColor="#60DDA8"/>
<stop offset="0.5" stopColor="#3BE0B9"/>
<stop offset="1" stopColor="#B4DE5A"/>
</linearGradient>
<linearGradient id="paint2_linear_1_3" x1="-1.048" y1="55.975" x2="442.952" y2="55.975" gradientUnits="userSpaceOnUse">
<stop stopColor="#60DDA8"/>
<stop offset="0.5" stopColor="#3BE0B9"/>
<stop offset="1" stopColor="#B4DE5A"/>
</linearGradient>
<linearGradient id="paint3_linear_1_3" x1="-1.048" y1="55.975" x2="442.952" y2="55.975" gradientUnits="userSpaceOnUse">
<stop stopColor="#60DDA8"/>
<stop offset="0.5" stopColor="#3BE0B9"/>
<stop offset="1" stopColor="#B4DE5A"/>
</linearGradient>
<linearGradient id="paint4_linear_1_3" x1="-1.048" y1="55.975" x2="442.952" y2="55.975" gradientUnits="userSpaceOnUse">
<stop stopColor="#60DDA8"/>
<stop offset="0.5" stopColor="#3BE0B9"/>
<stop offset="1" stopColor="#B4DE5A"/>
</linearGradient>
<linearGradient id="paint5_linear_1_3" x1="-1.048" y1="55.975" x2="442.952" y2="55.975" gradientUnits="userSpaceOnUse">
<stop stopColor="#60DDA8"/>
<stop offset="0.5" stopColor="#3BE0B9"/>
<stop offset="1" stopColor="#B4DE5A"/>
</linearGradient>
<linearGradient id="paint6_linear_1_3" x1="-1.048" y1="55.975" x2="442.952" y2="55.975" gradientUnits="userSpaceOnUse">
<stop stopColor="#60DDA8"/>
<stop offset="0.5" stopColor="#3BE0B9"/>
<stop offset="1" stopColor="#B4DE5A"/>
</linearGradient>
</defs>
</svg>
