<svg width="355" height="105" viewBox="0 0 355 105" fill="none" xmlns="http://www.w3.org/2000/svg">
<path d="M48.601 52.793C61.701 52.4 86.329 50.304 86.329 33.012C86.329 11.921 57.64 11.79 34.846 11.79H0V12.445H11.659V102.835H0V103.49H47.422C76.373 103.49 92.355 93.665 92.355 77.29C92.355 56.461 62.487 53.055 48.601 52.924V52.793ZM42.051 12.445C56.068 12.445 59.343 19.781 59.343 32.226C59.343 46.112 55.282 52.662 42.444 52.662H38.645V12.445H42.051ZM47.422 102.835C39.038 102.835 38.645 99.691 38.645 87.246V53.317H42.444C59.867 53.317 62.487 62.487 62.487 77.29C62.487 94.451 58.164 102.835 47.422 102.835Z" fill="#373737"/>
<path d="M173.365 33.798L138.519 35.894V36.549L148.999 36.025V82.923C147.427 95.63 142.58 100.477 137.209 100.477C129.218 100.477 129.218 91.045 129.218 86.067V33.798L94.5032 35.894V36.549L104.983 36.025V83.316C104.983 93.272 108.651 104.538 126.467 104.538C140.484 104.538 147.165 98.512 149.13 85.805L148.999 103.621H182.142V102.966H173.234L173.365 33.798Z" fill="#373737"/>
<path d="M203.004 29.213C211.126 29.213 217.676 22.663 217.676 14.541C217.676 6.419 211.126 0 203.004 0C195.013 0 188.463 6.55 188.463 14.541C188.463 22.663 195.013 29.213 203.004 29.213ZM215.187 48.339L215.449 33.798L180.472 35.894V36.549L190.821 36.025V102.835H180.603V103.49H225.405V102.835H215.187V48.339Z" fill="#373737"/>
<path d="M260.73 0L226.015 2.096V2.751L236.495 2.227V102.835H226.277V103.49H270.948V102.835H260.73V0Z" fill="#373737"/>
<path d="M345.375 0L310.267 2.096V2.751L320.747 2.227L321.14 46.505C319.437 37.073 312.101 33.667 304.896 33.667C288.259 33.667 273.325 47.291 273.325 70.74C273.325 92.355 285.77 104.669 301.883 104.669C313.018 104.669 319.306 98.643 321.14 88.425H321.271L321.14 103.621H354.283V102.966H345.244L345.375 0ZM309.481 101.787C302.669 101.787 299.918 93.272 299.918 69.823C299.918 43.099 303.324 35.501 309.874 35.501C315.507 35.501 321.009 41.789 321.009 50.959V85.281C320.616 94.32 315.114 101.787 309.481 101.787Z" fill="#373737"/>
</svg>
