<svg width="430" height="385" viewBox="0 0 430 385" fill="none" xmlns="http://www.w3.org/2000/svg">
<g id="Frame 1">
<g id="Layer 2">
<g id="Layer 1">
<path id="Vector" d="M285.259 173.256C295.283 216.572 262.803 257.283 233.719 265.703C215.78 270.896 202.746 262.751 168.041 269.778C156.776 272.065 145.757 275.42 135.131 279.796C123.991 255.442 110.03 232.476 93.535 211.368C103.23 205.909 111.99 198.94 119.486 190.723C132.144 176.745 134.403 166.285 141.924 154.173C151.967 137.99 171.789 118.308 194.168 113.444C227.351 106.232 275.179 129.681 285.259 173.256Z" stroke="white" stroke-miterlimit="10" stroke-dasharray="9 9"/>
<path id="Vector_2" d="M95.0367 212.957C94.7522 212.788 91.8652 211.148 88.6872 212.546C85.1367 214.125 84.6212 217.988 84.6105 218.173C98.856 237.403 110.97 258.121 120.739 279.962C121.646 281.182 122.906 282.093 124.348 282.572C125.791 283.051 127.346 283.074 128.801 282.639C132.453 281.469 133.484 277.711 133.547 277.464C123.408 254.471 110.477 232.811 95.0449 212.971L95.0367 212.957Z" fill="#F8F8F8"/>
<path id="Vector_3" d="M123.026 281.962L123.333 282.656C123.266 282.905 122.236 286.663 118.586 287.836C117.13 288.272 115.575 288.248 114.133 287.769C112.69 287.29 111.43 286.379 110.524 285.16C100.755 263.319 88.6412 242.601 74.3958 223.371C74.4147 223.201 74.922 219.323 78.4725 217.744C81.2663 216.517 83.8307 217.631 84.604 218.037" fill="#F8F8F8"/>
<path id="Vector_4" d="M113.281 287.422L113.647 288.241C113.584 288.488 112.553 292.247 108.904 293.419C107.448 293.856 105.892 293.833 104.449 293.355C103.006 292.876 101.745 291.965 100.838 290.745C91.069 268.904 78.9552 248.186 64.7099 228.956C64.7287 228.786 65.2361 224.908 68.79 223.327C69.6782 222.955 70.633 222.767 71.5963 222.774C72.5597 222.782 73.5115 222.985 74.3941 223.372" fill="#F8F8F8"/>
<path id="Vector_5" d="M97.8675 284.309C92.6772 290.078 78.8939 289.847 69.4145 283.708C58.0344 276.315 57.3997 263.275 57.3652 262.162C57.0283 251.225 63.4754 239.447 70.8898 237.639" fill="#F8F8F8"/>
</g>
<g id="Group" opacity="0.8">
<path id="Vector_6" opacity="0.8" d="M227.445 135.788C225.943 136.647 224.561 137.701 223.334 138.921C222.117 140.172 221.087 141.592 220.277 143.137C218.594 146.256 217.636 149.833 217.006 153.492C216.402 157.195 215.989 160.927 215.768 164.673C215.533 168.414 215.503 172.148 215.63 175.844C215.757 179.539 216.083 183.19 216.567 186.774C217.016 190.288 217.703 193.768 218.621 197.19C219.471 200.421 220.803 203.505 222.571 206.341C223.412 207.663 224.4 208.888 225.515 209.99C226.052 210.51 226.617 211 227.207 211.458C227.788 211.89 228.402 212.276 229.042 212.614C231.313 213.839 233.851 214.485 236.432 214.496C233.314 214.246 230.344 213.063 227.909 211.1C227.737 210.956 227.569 210.828 227.399 210.664C227.229 210.5 227.07 210.362 226.909 210.188C226.584 209.846 226.238 209.531 225.945 209.161L225.482 208.628C225.331 208.448 225.194 208.251 225.048 208.063L224.621 207.495L224.219 206.898C222.092 203.705 220.729 199.88 219.787 195.877C219.309 193.868 218.931 191.811 218.613 189.705C218.294 187.599 218.016 185.489 217.806 183.367C217.596 181.246 217.431 179.113 217.338 176.975C217.246 174.837 217.203 172.69 217.211 170.555C217.218 168.421 217.287 166.27 217.423 164.132C217.559 161.993 217.73 159.858 217.978 157.726C218.225 155.593 218.507 153.52 218.935 151.514C219.14 150.506 219.401 149.532 219.668 148.568C219.935 147.604 220.268 146.672 220.649 145.783C221.346 144.038 222.297 142.406 223.471 140.94C223.607 140.754 223.77 140.599 223.918 140.425C224.066 140.251 224.19 140.085 224.375 139.927L225.362 138.993C226.057 138.407 226.797 137.877 227.575 137.408C229.183 136.45 230.917 135.72 232.726 135.239C234.618 134.758 236.549 134.446 238.496 134.304C240.999 134.114 243.512 134.106 246.016 134.281C248.575 134.444 251.138 134.745 253.757 135.15C259.021 135.893 264.225 137.013 269.329 138.503C274.526 140.013 279.532 142.118 284.246 144.776C289.05 147.531 293.309 151.142 296.81 155.43C298.27 157.435 298.898 157.42 299.196 157.417C298.657 156.421 298.193 155.448 297.714 154.554C297.234 153.66 296.729 152.851 296.264 152.047C292.97 148.607 289.185 145.673 285.032 143.34C280.882 141.003 276.511 139.082 271.982 137.606C267.423 136.115 262.772 134.921 258.058 134.033C253.322 133.135 248.515 132.348 243.671 132.121C240.495 131.96 237.313 132.27 234.227 133.039C231.863 133.678 229.586 134.601 227.445 135.788Z" fill="#30EC9C"/>
<path id="Vector_7" opacity="0.8" d="M296.715 152.667L296.535 152.355L296.058 151.815L295.539 151.314L294.5 150.326C295.278 151.068 296.017 151.85 296.715 152.667Z" fill="#30EC9C"/>
<path id="Vector_8" opacity="0.8" d="M255.17 133.647C252.03 133.168 248.93 132.708 245.827 132.479C242.769 132.228 239.695 132.247 236.64 132.537C234.815 132.838 233.025 133.327 231.3 133.996L230.72 134.209C230.532 134.28 230.348 134.376 230.18 134.45C229.811 134.621 229.485 134.762 229.157 134.909C228.52 135.225 227.961 135.547 227.443 135.785C225.941 136.644 224.558 137.697 223.332 138.918C222.115 140.169 221.085 141.589 220.275 143.134C218.592 146.253 217.634 149.829 217.004 153.488C216.4 157.192 215.987 160.924 215.766 164.67C215.53 168.411 215.501 172.145 215.628 175.84C215.755 179.536 216.081 183.187 216.565 186.77C217.014 190.285 217.701 193.765 218.619 197.187C219.469 200.417 220.801 203.502 222.569 206.337C223.41 207.66 224.398 208.884 225.513 209.986C226.05 210.506 226.615 210.996 227.205 211.454C227.786 211.886 228.4 212.273 229.04 212.611C231.284 213.821 233.789 214.466 236.339 214.489C234.962 214.371 233.607 214.067 232.312 213.585C231.126 213.152 229.997 212.574 228.952 211.866C228.435 211.517 227.942 211.133 227.477 210.717L227.135 210.409L226.795 210.057C226.57 209.822 226.328 209.605 226.122 209.354C224.36 207.341 222.944 205.051 221.931 202.576C219.788 197.515 218.825 191.726 218.082 185.862C217.977 185.226 217.86 184.586 217.77 183.978C216.679 177.43 216.905 171.265 217.25 164.943C217.316 162.69 217.482 160.483 217.685 158.321C217.887 156.158 218.167 154.058 218.553 152.043C218.92 150.091 219.45 148.174 220.139 146.311C220.794 144.575 221.678 142.934 222.766 141.43C223.038 141.091 223.292 140.72 223.621 140.39L224.071 139.887L224.567 139.432L225.056 138.973L225.302 138.742L225.573 138.539L226.655 137.728C228.224 136.708 229.929 135.915 231.721 135.373C233.628 134.784 235.592 134.403 237.581 134.237C239.709 134.048 241.846 133.996 243.98 134.082C247.132 134.218 250.398 134.47 253.867 134.936C257.493 135.371 261.083 136.064 264.61 137.011C265.248 137.167 265.872 137.346 266.485 137.531L268.316 138.081C269.519 138.459 270.666 138.903 271.831 139.299C276.639 140.84 281.246 142.949 285.555 145.581L287.171 146.601C287.697 146.968 288.203 147.35 288.724 147.724L289.516 148.283L289.906 148.569L290.272 148.877L291.741 150.123C291.985 150.333 292.237 150.534 292.476 150.753L293.156 151.451L294.534 152.815C294.993 153.276 295.39 153.792 295.815 154.277L296.451 155.02C296.666 155.254 296.868 155.5 297.056 155.757C298.501 157.77 299.127 157.76 299.445 157.759C298.884 156.707 298.392 155.726 297.923 154.77C295.211 151.316 292.001 148.282 288.398 145.767C284.745 143.223 280.832 141.072 276.725 139.352C273.084 137.913 269.358 136.701 265.567 135.724C261.758 134.736 257.887 133.963 253.973 133.312C254.285 133.413 254.671 133.523 255.17 133.647Z" fill="#30EC9C"/>
<path id="Vector_9" opacity="0.8" d="M254.551 132.754C253.444 132.559 252.036 132.692 253.982 133.311C257.896 133.962 261.767 134.735 265.576 135.723C269.371 136.709 273.102 137.931 276.746 139.381C273.226 137.9 269.623 136.623 265.956 135.555C262.233 134.471 258.429 133.556 254.551 132.754Z" fill="#30EC9C"/>
<g id="Vector_10" opacity="0.8">
<path d="M256.075 131.217C254.142 130.847 252.223 130.493 250.281 130.222C248.339 129.951 246.404 129.756 244.463 129.657C242.532 129.552 240.597 129.56 238.667 129.68C237.709 129.717 236.75 129.849 235.803 129.954C235.329 130.017 234.856 130.107 234.386 130.186L233.663 130.312C233.43 130.363 233.197 130.422 232.966 130.476C232.503 130.583 232.037 130.693 231.578 130.807L230.218 131.226C229.994 131.3 229.766 131.36 229.542 131.443L228.884 131.706C228.444 131.884 228 132.042 227.572 132.241C226.72 132.633 225.892 133.076 225.093 133.568L224.503 133.918C224.302 134.033 224.109 134.163 223.926 134.306C223.554 134.586 223.185 134.864 222.819 135.146C222.453 135.425 222.105 135.728 221.777 136.051C221.449 136.367 221.099 136.662 220.787 136.996C220.474 137.331 220.167 137.658 219.873 137.992C219.578 138.325 219.303 138.685 219.043 139.046C218.014 140.447 217.125 141.946 216.388 143.521C214.985 146.671 213.944 149.97 213.284 153.355C212.607 156.601 212.097 159.69 211.651 162.63C211.517 164.829 211.446 166.991 211.429 169.149C211.41 175.874 211.941 182.589 213.016 189.228C213.534 192.596 214.269 195.928 215.216 199.201C216.178 202.584 217.605 205.817 219.458 208.807C220.428 210.332 221.551 211.756 222.809 213.055L223.795 214.008C224.143 214.318 224.502 214.631 224.874 214.917C225.606 215.496 226.379 216.02 227.187 216.487C228.802 217.405 230.535 218.099 232.338 218.55C234.151 219.015 236.023 219.211 237.893 219.13C239.829 219.051 241.734 218.618 243.512 217.852C245.337 217.068 246.967 215.893 248.288 214.41C249.046 213.577 249.632 212.603 250.013 211.543C250.455 210.279 250.447 208.902 249.989 207.643C249.61 206.644 249.071 205.714 248.395 204.887C248.107 204.519 247.839 204.2 247.582 203.885L246.793 202.935C238.364 192.784 229.273 183.199 219.58 174.245C214.721 169.779 209.618 165.474 203.878 161.868C201.005 160.046 197.981 158.474 194.84 157.167C191.6 155.746 188.152 154.855 184.628 154.529C182.767 154.383 180.896 154.49 179.064 154.848C177.17 155.22 175.359 155.931 173.718 156.947C172.099 157.994 170.674 159.314 169.508 160.849C168.406 162.339 167.526 163.982 166.897 165.725C166.299 167.37 165.87 169.072 165.617 170.804C165.355 172.469 165.207 174.151 165.172 175.836C165.112 177.5 165.156 179.123 165.255 180.77L165.33 181.986L165.424 183.177L165.626 185.561C166.211 191.916 167.097 198.272 168.283 204.63C168.873 207.811 169.537 210.999 170.275 214.194C171.013 217.392 171.84 220.628 172.905 223.848C174.035 227.569 175.548 231.162 177.418 234.571C177.888 235.424 178.417 236.242 179.002 237.02C179.603 237.838 180.302 238.58 181.084 239.228C181.917 239.932 182.881 240.464 183.921 240.795C185.011 241.136 186.168 241.206 187.291 241.001C188.377 240.799 189.411 240.384 190.334 239.78C191.234 239.191 192.033 238.46 192.7 237.616C193.364 236.768 193.89 235.82 194.257 234.807C194.618 233.827 194.86 232.807 194.979 231.769C195.192 229.762 195.111 227.734 194.741 225.75L194.454 224.281C194.35 223.793 194.273 223.295 194.122 222.815L193.714 221.355L193.501 220.622L193.239 219.902L192.581 218.099L191.809 216.358C191.564 215.773 191.262 215.217 190.968 214.661C190.675 214.104 190.395 213.54 190.065 213.009C189.409 211.94 188.77 210.867 188.039 209.87C187.308 208.873 186.578 207.903 185.818 206.936C184.282 205.064 182.63 203.289 180.872 201.623C180.014 200.779 179.106 200.01 178.212 199.219C177.765 198.826 177.305 198.459 176.84 198.085C176.376 197.712 175.935 197.329 175.455 196.978C174.518 196.264 173.583 195.548 172.615 194.87C171.647 194.192 170.69 193.541 169.722 192.896C167.755 191.583 165.708 190.396 163.591 189.342C161.402 188.249 159.086 187.433 156.695 186.913C156.102 186.787 155.456 186.691 154.842 186.609C154.533 186.577 154.217 186.558 153.903 186.533L153.418 186.504L152.947 186.499C149.096 186.419 145.338 187.683 142.321 190.074C140.387 191.604 138.733 193.458 137.436 195.554C136.158 197.623 135.197 199.871 134.582 202.223C134.012 204.559 133.725 206.955 133.727 209.36C133.715 214.152 134.661 218.851 135.906 223.461C137.152 228.07 138.713 232.643 139.886 237.403C141.142 242.517 141.86 245.46 142.464 246.821C143.068 248.182 143.567 247.838 143.509 246.514C143.225 242.197 142.306 238.04 141.237 234.035C140.168 230.03 138.946 226.133 138.003 222.242C137.009 218.42 136.456 214.498 136.356 210.551C136.34 208.628 136.516 206.709 136.881 204.822C137.24 202.968 137.844 201.17 138.676 199.474C140.325 196.103 142.93 193.169 146.157 191.481C149.384 189.794 153.189 189.618 156.782 190.646C160.375 191.674 163.812 193.615 167.084 195.789C170.367 197.967 173.495 200.37 176.447 202.98C179.386 205.554 182.049 208.426 184.391 211.551C186.708 214.639 188.563 218.048 189.899 221.668C190.073 222.116 190.188 222.583 190.334 223.037C190.48 223.492 190.631 223.948 190.741 224.414L191.052 225.812C191.162 226.277 191.269 226.745 191.337 227.211C191.665 229.001 191.667 230.834 191.345 232.623C191.176 233.446 190.879 234.236 190.465 234.966C190.06 235.673 189.527 236.298 188.893 236.809C188.291 237.301 187.589 237.655 186.835 237.846C186.482 237.928 186.12 237.965 185.757 237.957C185.4 237.934 185.048 237.869 184.707 237.762C183.295 237.321 181.993 236.049 180.952 234.557C180.69 234.178 180.432 233.789 180.191 233.38C179.95 232.971 179.708 232.544 179.467 232.126L178.792 230.83C178.583 230.388 178.361 229.954 178.163 229.507C176.566 225.881 175.308 222.116 174.406 218.259C173.928 216.315 173.497 214.345 173.09 212.36C172.682 210.376 172.301 208.386 171.949 206.384C171.238 202.383 170.635 198.353 170.141 194.293C169.756 191.144 169.449 187.998 169.22 184.856C169.1 183.287 168.997 181.707 168.929 180.164C168.861 178.62 168.874 177.077 168.943 175.544C169.021 174.033 169.192 172.527 169.453 171.036C169.716 169.573 170.114 168.137 170.641 166.746C171.177 165.403 171.89 164.138 172.763 162.985C173.651 161.881 174.719 160.934 175.923 160.185C178.344 158.7 181.273 158.215 184.181 158.392C187.138 158.612 190.042 159.297 192.786 160.421C198.384 162.624 203.534 165.826 208.281 169.508C213.029 173.19 217.452 177.307 221.772 181.497C226.092 185.687 230.213 190.035 234.188 194.471C236.177 196.696 238.124 198.948 240.031 201.23C240.981 202.372 241.929 203.516 242.86 204.674L244.254 206.412C244.726 207.002 245.174 207.558 245.487 208.042C245.766 208.43 245.96 208.872 246.055 209.34C246.08 209.498 246.076 209.658 246.043 209.815C246.008 210.003 245.946 210.185 245.86 210.356C245.491 211.153 244.533 212.113 243.55 212.788C241.56 214.16 238.989 214.687 236.437 214.487C233.858 214.474 231.323 213.826 229.054 212.601C228.413 212.263 227.8 211.876 227.219 211.445C226.628 210.986 226.063 210.496 225.526 209.976C224.411 208.874 223.423 207.65 222.582 206.327C220.814 203.491 219.482 200.406 218.632 197.176C217.713 193.753 217.027 190.273 216.577 186.758C216.094 183.175 215.771 179.521 215.641 175.827C215.511 172.133 215.555 168.386 215.779 164.656C215.999 160.91 216.412 157.177 217.017 153.474C217.655 149.828 218.605 146.237 220.287 143.118C221.098 141.573 222.128 140.153 223.346 138.902C224.572 137.681 225.954 136.628 227.456 135.768C229.595 134.585 231.87 133.665 234.231 133.028C237.316 132.259 240.499 131.95 243.675 132.111C248.52 132.338 253.313 133.109 258.063 134.022C262.777 134.911 267.428 136.105 271.987 137.596C276.517 139.072 280.888 140.993 285.039 143.33C289.187 145.673 292.966 148.616 296.253 152.063C296.138 151.851 296.01 151.646 295.871 151.45L295.475 150.863L294.702 149.703C294.203 148.941 293.662 148.207 293.08 147.506C291.906 145.998 290.606 144.592 289.194 143.304C284.114 140.117 278.667 137.554 272.973 135.67C267.434 133.852 261.791 132.365 256.075 131.217Z" fill="#65FFBE" style="mix-blend-mode:lighten"/>
</g>
<path id="Vector_11" opacity="0.8" d="M256.087 131.215C261.802 132.364 267.445 133.851 272.984 135.668C278.678 137.552 284.125 140.115 289.205 143.303C288.445 142.645 287.622 141.968 286.727 141.262C285.832 140.556 284.792 139.933 283.679 139.231C280.409 137.381 277.005 135.777 273.497 134.432C269.917 133.09 266.261 131.962 262.548 131.053L259.737 130.389L256.9 129.81C255.953 129.607 254.999 129.464 254.047 129.292L252.617 129.039L251.161 128.821C249.213 128.539 247.248 128.31 245.243 128.188C244.258 128.105 243.233 128.092 242.224 128.055C241.716 128.044 241.206 128.062 240.695 128.061C240.184 128.061 239.679 128.071 239.165 128.105C237.086 128.194 235.017 128.447 232.978 128.863C230.873 129.298 228.822 129.963 226.862 130.845C224.858 131.772 222.994 132.976 221.325 134.421L220.123 135.582C219.914 135.772 219.719 135.975 219.538 136.191L218.99 136.816C218.639 137.238 218.307 137.677 217.981 138.118C217.655 138.559 217.359 139.02 217.08 139.485C214.82 143.209 213.653 147.253 212.941 151.151C212.583 153.109 212.333 155.051 212.139 156.96C211.946 158.87 211.793 160.77 211.668 162.668C212.114 159.728 212.624 156.639 213.3 153.393C213.96 150.008 215.001 146.709 216.405 143.56C217.14 141.979 218.03 140.475 219.061 139.069C219.321 138.709 219.614 138.366 219.89 138.015C220.165 137.665 220.494 137.344 220.804 137.02C221.114 136.696 221.466 136.39 221.794 136.075C222.122 135.751 222.47 135.449 222.836 135.17C223.202 134.888 223.571 134.61 223.943 134.33C224.124 134.179 224.315 134.04 224.515 133.916L225.119 133.568C225.918 133.076 226.746 132.633 227.599 132.241C228.027 132.041 228.47 131.884 228.91 131.705L229.569 131.442C229.793 131.36 230.02 131.299 230.245 131.226L231.605 130.807C232.065 130.696 232.531 130.586 232.992 130.475C233.223 130.421 233.456 130.362 233.689 130.312L234.395 130.195C234.865 130.116 235.338 130.027 235.812 129.964C236.77 129.879 237.718 129.727 238.675 129.689C240.605 129.57 242.541 129.562 244.472 129.667C246.405 129.769 248.348 129.97 250.289 130.231C252.231 130.493 254.136 130.856 256.087 131.215Z" fill="#30EC9C"/>
<path id="Vector_12" opacity="0.8" d="M256.087 131.215C261.542 132.314 266.929 133.724 272.223 135.438L273.23 135.761C273.562 135.874 273.894 136.001 274.226 136.123L276.216 136.849C276.889 137.074 277.533 137.377 278.19 137.639C278.848 137.902 279.508 138.176 280.166 138.462C282.787 139.623 285.332 140.949 287.787 142.43L286.584 141.597C286.173 141.333 285.75 141.095 285.331 140.84L284.071 140.087L283.437 139.713L282.777 139.382L280.152 138.034L277.46 136.829C272.835 134.895 268.064 133.332 263.191 132.157L259.553 131.31L255.889 130.581L252.205 129.947L250.35 129.663L248.481 129.421C243.471 128.859 238.347 128.652 233.188 129.59C230.558 130.05 228.012 130.898 225.633 132.106C225.033 132.414 224.459 132.783 223.876 133.119C223.583 133.293 223.3 133.484 223.03 133.691L222.202 134.3C222.058 134.383 221.926 134.496 221.791 134.602L221.408 134.945L220.644 135.633C220.135 136.093 219.652 136.581 219.198 137.094C219.676 136.529 220.188 135.994 220.73 135.49C221.257 134.972 221.82 134.491 222.414 134.051C222.986 133.588 223.59 133.164 224.221 132.784L225.163 132.209C225.482 132.024 225.813 131.876 226.136 131.704C228.71 130.445 231.462 129.583 234.296 129.148C237.022 128.719 239.782 128.545 242.54 128.627C245.242 128.706 247.938 128.937 250.614 129.319C255.888 130.074 261.114 131.133 266.266 132.491C271.482 133.854 276.561 135.697 281.437 137.996C278.191 136.291 274.819 134.837 271.351 133.647C267.836 132.423 264.254 131.403 260.622 130.591C259.71 130.367 258.791 130.195 257.874 130.003C256.957 129.81 256.035 129.626 255.107 129.472C253.258 129.134 251.387 128.808 249.485 128.598C245.602 128.076 241.677 127.94 237.767 128.191C233.784 128.53 229.665 129.364 225.872 131.345L225.149 131.715L224.459 132.142C224.01 132.428 223.534 132.674 223.111 133.012L221.834 133.996L221.511 134.248L221.205 134.528L220.622 135.084C219.072 136.553 217.751 138.246 216.703 140.106C214.596 143.755 213.556 147.669 212.874 151.448C212.537 153.346 212.295 155.228 212.112 157.075C211.929 158.922 211.775 160.771 211.653 162.611C212.1 159.68 212.605 156.599 213.284 153.365C213.943 149.99 214.982 146.701 216.381 143.559C217.124 141.978 218.022 140.474 219.061 139.069C219.321 138.709 219.615 138.366 219.89 138.016C220.165 137.665 220.495 137.344 220.804 137.02C221.114 136.697 221.466 136.39 221.794 136.075C222.122 135.752 222.47 135.449 222.836 135.17C223.203 134.888 223.571 134.61 223.943 134.33C224.124 134.179 224.315 134.041 224.515 133.916L225.119 133.568C225.918 133.076 226.746 132.633 227.599 132.241C228.027 132.041 228.47 131.884 228.91 131.705L229.569 131.443C229.793 131.36 230.02 131.299 230.245 131.226L231.605 130.807C232.066 130.696 232.532 130.587 232.992 130.475C233.223 130.422 233.456 130.362 233.69 130.312L234.395 130.196C234.865 130.117 235.338 130.027 235.812 129.964C236.771 129.88 237.718 129.727 238.675 129.69C240.605 129.57 242.541 129.562 244.472 129.667C246.405 129.77 248.348 129.97 250.29 130.232C252.231 130.494 254.136 130.856 256.087 131.215Z" fill="#30EC9C"/>
<g id="Vector_13" opacity="0.8" filter="url(#filter0_d_45_1984)">
<path d="M224.303 134.244C226.911 132.581 229.81 131.423 232.847 130.83C235.815 130.242 238.839 129.99 241.863 130.079C244.846 130.163 247.821 130.435 250.769 130.896C253.716 131.341 256.622 131.894 259.537 132.503C265.39 133.738 271.13 135.459 276.698 137.647L278.773 138.539L279.813 138.984L280.83 139.479L282.87 140.47L284.859 141.561L285.856 142.11C286.191 142.292 286.504 142.51 286.829 142.706L288.768 143.929C289.406 144.343 290.008 144.811 290.637 145.249C291.265 145.687 291.891 146.122 292.465 146.629L291.963 146.011L291.426 145.431C291.053 145.046 290.666 144.651 290.262 144.229C289.477 143.567 288.624 143.015 287.781 142.424C285.325 140.939 282.777 139.61 280.153 138.446C279.491 138.167 278.819 137.913 278.18 137.617C277.54 137.321 276.878 137.052 276.205 136.827L274.215 136.101C273.885 135.983 273.553 135.855 273.219 135.739L272.212 135.44C266.92 133.731 261.535 132.326 256.084 131.231C254.15 130.861 252.231 130.507 250.289 130.236C248.347 129.965 246.412 129.77 244.471 129.671C242.54 129.567 240.605 129.574 238.675 129.694C237.717 129.731 236.758 129.863 235.811 129.968C235.337 130.031 234.864 130.121 234.395 130.2L233.663 130.313C233.43 130.363 233.197 130.422 232.966 130.476C232.503 130.583 232.037 130.693 231.579 130.808L230.218 131.227C229.994 131.3 229.767 131.361 229.542 131.443L228.884 131.706C228.444 131.885 228 132.042 227.573 132.242C226.72 132.634 225.892 133.077 225.093 133.568L224.503 133.918C224.302 134.034 224.109 134.164 223.926 134.306C223.554 134.587 223.186 134.865 222.819 135.146C222.453 135.426 222.105 135.728 221.777 136.051C221.449 136.367 221.1 136.662 220.787 136.997C220.475 137.331 220.167 137.658 219.873 137.992C219.578 138.326 219.304 138.685 219.044 139.046C218.014 140.447 217.125 141.947 216.388 143.522C214.989 146.663 213.95 149.952 213.292 153.327C212.612 156.561 212.101 159.632 211.661 162.574C211.55 164.627 211.459 166.665 211.452 168.696C211.404 175.57 211.932 182.437 213.032 189.224C213.554 192.654 214.301 196.046 215.267 199.378C216.268 202.831 217.756 206.124 219.684 209.159C220.705 210.702 221.886 212.134 223.208 213.43C223.88 214.103 224.604 214.721 225.374 215.28C226.145 215.842 226.958 216.346 227.805 216.786C229.482 217.67 231.274 218.315 233.129 218.702C235.005 219.105 236.931 219.217 238.84 219.034C242.692 218.686 246.629 216.856 249.075 213.372C249.408 212.883 249.686 212.358 249.904 211.808C250.149 211.186 250.291 210.528 250.324 209.861C250.343 209.177 250.247 208.495 250.039 207.844C249.852 207.279 249.601 206.737 249.292 206.228C248.782 205.422 248.212 204.655 247.587 203.934L245.971 201.991C238.209 193.193 229.719 184.374 220.657 175.937C216.119 171.727 211.395 167.568 206.18 163.969C203.568 162.152 200.834 160.518 197.997 159.079C197.309 158.698 196.556 158.393 195.837 158.049C195.118 157.705 194.366 157.417 193.629 157.107C192.112 156.495 190.555 155.985 188.97 155.58C190.463 155.932 191.932 156.378 193.369 156.916C194.083 157.178 194.764 157.473 195.465 157.753C196.165 158.033 196.836 158.367 197.516 158.668C200.211 159.945 202.816 161.405 205.312 163.036C210.285 166.256 214.849 170.034 219.208 173.926C214.452 169.565 209.437 165.363 203.841 161.852C201.036 160.072 198.088 158.529 195.026 157.238C191.87 155.833 188.516 154.924 185.082 154.544C181.898 154.192 178.678 154.648 175.719 155.869C175.351 156.043 174.971 156.197 174.618 156.396C174.264 156.595 173.915 156.801 173.546 157.014L172.557 157.734L172.064 158.098L171.615 158.511C171.31 158.795 171.001 159.071 170.724 159.353L169.932 160.277C169.669 160.581 169.428 160.902 169.208 161.238C168.986 161.567 168.746 161.888 168.548 162.227C167.037 164.851 166.045 167.74 165.626 170.738C165.212 173.542 165.067 176.379 165.192 179.21C165.44 180.345 165.746 181.789 166.025 183.674C166.304 185.559 166.609 187.925 166.968 190.897C167.509 195.544 168.135 200.136 168.946 204.739C169.726 209.374 170.749 213.965 172.011 218.493C172.112 218.939 172.154 219.396 172.137 219.853C172.171 220.64 172.306 221.42 172.54 222.172C171.563 218.602 170.835 215.341 170.128 212.326L168.174 204.028C168.76 207.23 169.42 210.439 170.155 213.654C170.891 216.873 171.708 220.124 172.754 223.369C173.648 226.315 174.758 229.192 176.076 231.975C176.407 232.645 176.735 233.317 177.098 233.97C177.461 234.622 177.823 235.28 178.229 235.926C179.066 237.273 180.128 238.468 181.368 239.458C182.752 240.554 184.475 241.133 186.241 241.096C187.993 241.011 189.673 240.37 191.036 239.268C191.699 238.745 192.294 238.14 192.807 237.47C192.928 237.297 193.073 237.119 193.178 236.952L193.514 236.407L193.816 235.835L194.072 235.265C194.69 233.74 195.031 232.117 195.077 230.472C195.075 229.122 194.95 227.774 194.703 226.446C194.097 223.246 193.044 220.146 191.576 217.237C190.11 214.35 188.318 211.64 186.236 209.159C187.848 211.283 189.278 213.539 190.511 215.904L189.66 214.521C189.52 214.279 189.378 214.033 189.236 213.787L188.752 213.073L187.779 211.617L186.733 210.188C186.558 209.951 186.389 209.707 186.21 209.478L185.659 208.793L184.583 207.499L183.493 206.254C183.142 205.849 182.802 205.455 182.453 205.103C182.794 205.417 183.118 205.75 183.436 206.091L184.405 207.101C185.047 207.775 185.636 208.502 186.251 209.201C184.384 206.752 182.321 204.457 180.083 202.34C177.796 200.155 175.381 198.108 172.851 196.21C176.044 198.581 179.074 201.164 181.921 203.94C184.601 206.544 187.017 209.406 189.133 212.484C187.142 209.398 184.831 206.529 182.24 203.924C179.745 201.404 177.077 199.061 174.255 196.912L173.21 196.11L172.141 195.322L171.078 194.553L169.995 193.806C168.565 192.8 167.083 191.833 165.542 190.919C162.462 189.108 159.092 187.46 155.216 186.745C155.61 186.794 156.019 186.821 156.4 186.896C155.024 186.627 153.623 186.505 152.222 186.533C150.799 186.572 149.387 186.786 148.016 187.169C145.32 187.978 142.858 189.423 140.838 191.383C138.886 193.279 137.293 195.513 136.136 197.975C135.569 199.199 135.1 200.465 134.732 201.762C134.372 203.056 134.115 204.377 133.965 205.711C133.878 206.37 133.842 207.037 133.78 207.691C133.717 208.345 133.72 209.023 133.738 209.686C133.747 211.014 133.823 212.341 133.965 213.661C134.268 216.297 134.747 218.91 135.4 221.482C136.675 226.646 138.456 231.696 139.783 236.981C141.077 242.096 141.814 245.033 142.434 246.389C142.748 247.07 143.011 247.306 143.207 247.231C143.402 247.156 143.516 246.753 143.469 246.064C143.014 240.034 141.351 234.377 139.794 228.897C139.009 226.153 138.243 223.443 137.641 220.724C137.028 218.041 136.628 215.314 136.445 212.569C136.356 211.217 136.354 209.86 136.44 208.508C136.508 207.174 136.681 205.847 136.956 204.539C137.491 201.958 138.507 199.502 139.952 197.297C140.669 196.207 141.495 195.192 142.418 194.269C143.334 193.369 144.348 192.572 145.44 191.895C146.531 191.259 147.702 190.768 148.921 190.436C150.146 190.121 151.41 189.982 152.674 190.023C153.963 190.063 155.242 190.249 156.489 190.576C157.764 190.923 159.009 191.368 160.215 191.907C162.679 193.047 165.039 194.398 167.271 195.943C171.859 198.966 176.114 202.465 179.965 206.383C183.792 210.228 186.893 214.73 189.12 219.674C190.153 222.134 190.906 224.703 191.364 227.332C191.575 228.597 191.643 229.883 191.565 231.163C191.494 232.363 191.191 233.537 190.674 234.622C191.741 232.822 192.033 230.434 191.874 228.035C191.773 226.806 191.602 225.583 191.364 224.373C191.258 223.76 191.071 223.161 190.928 222.55L190.698 221.634L190.399 220.734C190.215 220.222 190.045 219.702 189.855 219.203L189.239 217.732L188.941 217.005L188.606 216.304L187.941 214.927L188.645 216.356C188.758 216.591 188.885 216.827 188.986 217.068L189.287 217.798L189.887 219.25L190.378 220.732C190.501 221.082 190.64 221.428 190.746 221.789L191.052 222.877L191.367 223.973C191.457 224.347 191.525 224.725 191.608 225.103C191.97 226.608 192.175 228.147 192.22 229.695C192.278 231.207 192.036 232.715 191.506 234.133C190.979 235.472 190.047 236.613 188.839 237.398C188.614 237.527 188.256 237.701 187.834 237.888C187.371 238.079 186.885 238.211 186.389 238.281C185.885 238.349 185.373 238.348 184.869 238.277C184.385 238.21 183.953 238.08 183.608 238.017C182.735 237.477 181.964 236.788 181.33 235.982C180.628 235.109 180.008 234.174 179.476 233.188C178.319 231.111 177.32 228.95 176.488 226.723C174.876 222.3 173.697 217.731 172.968 213.082C172.844 212.266 172.768 211.444 172.739 210.62C171.651 205.091 170.769 199.513 170.092 193.886C169.63 189.948 169.277 186.016 169.031 182.09C168.795 178.205 168.811 174.328 169.525 170.635C169.859 168.815 170.437 167.048 171.244 165.383C172.028 163.772 173.141 162.343 174.511 161.187C174.862 160.919 175.223 160.668 175.576 160.404C175.752 160.27 175.959 160.183 176.149 160.073C176.339 159.964 176.532 159.853 176.722 159.743C177.117 159.547 177.523 159.372 177.937 159.22C178.146 159.152 178.35 159.067 178.564 158.999L179.208 158.825C180.969 158.393 182.79 158.257 184.596 158.42C186.437 158.577 188.256 158.928 190.023 159.467C191.812 160.013 193.56 160.684 195.255 161.475C196.117 161.848 196.951 162.285 197.791 162.7C198.211 162.926 198.622 163.157 199.039 163.385C199.456 163.612 199.867 163.844 200.267 164.082C201.897 165.014 203.465 166.048 205.01 167.115C211.184 171.417 216.7 176.589 222.087 181.831C217.032 176.645 212.042 171.75 207.028 167.689C204.912 165.954 202.658 164.396 200.287 163.031C198.808 162.179 197.288 161.402 195.732 160.703C195.319 160.524 194.911 160.329 194.481 160.16L193.195 159.647C192.327 159.304 191.422 159.011 190.511 158.732C188.632 158.173 186.698 157.817 184.743 157.67C182.748 157.5 180.739 157.681 178.807 158.204C177.854 158.471 176.936 158.85 176.073 159.335L175.437 159.702C175.223 159.825 175.038 159.993 174.838 160.132L174.25 160.574C174.057 160.718 173.892 160.902 173.709 161.064C172.305 162.39 171.189 163.99 170.429 165.764L170.143 166.397L169.92 167.031C169.768 167.441 169.607 167.834 169.49 168.216C169.373 168.597 169.234 168.981 169.126 169.362L168.812 170.479C168.383 172.105 168.112 173.768 168.001 175.446C167.958 173.664 168.076 171.882 168.352 170.122C168.637 168.243 169.189 166.414 169.991 164.691C170.842 162.88 172.075 161.275 173.605 159.985C175.204 158.687 177.08 157.773 179.089 157.315C181.124 156.885 183.217 156.799 185.281 157.06C187.34 157.306 189.367 157.773 191.325 158.454C195.154 159.821 198.835 161.572 202.311 163.68C206.837 166.394 211.409 169.999 215.922 174.093C220.434 178.186 224.953 182.655 229.391 187.293C233.829 191.93 238.144 196.76 242.243 201.523C243.264 202.714 244.276 203.905 245.265 205.09C245.763 205.683 246.273 206.265 246.715 206.867C247.171 207.446 247.513 208.107 247.723 208.814C247.904 209.512 247.859 210.249 247.596 210.919C247.329 211.596 246.948 212.223 246.469 212.772C245.534 213.874 244.398 214.788 243.121 215.465C241.038 216.534 238.705 217.022 236.367 216.878C234.13 216.76 231.94 216.193 229.926 215.212C228.032 214.301 226.337 213.023 224.941 211.452C223.64 210.029 222.526 208.446 221.628 206.742C222.614 208.178 223.712 209.534 224.911 210.8L225.944 211.777L226.457 212.226L226.974 212.635C227.576 213.092 228.208 213.51 228.864 213.886C231.321 215.296 234.089 216.074 236.921 216.151C239.723 216.217 242.574 215.467 244.761 213.747C245.839 212.897 246.845 211.825 247.267 210.626C247.476 210.041 247.494 209.405 247.317 208.809C247.115 208.172 246.802 207.576 246.393 207.048C245.986 206.482 245.504 205.916 245.045 205.348L243.646 203.65C242.712 202.521 241.767 201.4 240.81 200.285C233.153 191.343 224.91 182.92 216.135 175.07C224.96 183.344 233.305 192.113 241.132 201.335C242.105 202.478 243.064 203.632 244.01 204.798L245.428 206.546C245.866 207.065 246.251 207.628 246.577 208.225C246.851 208.712 246.978 209.269 246.941 209.827C246.865 210.399 246.648 210.943 246.311 211.412C245.93 211.954 245.483 212.447 244.981 212.881C244.477 213.338 243.922 213.738 243.328 214.073C240.97 215.432 238.071 215.807 235.311 215.417C232.522 215.01 229.886 213.887 227.66 212.159C230.33 214.097 233.511 215.208 236.807 215.355C238.403 215.427 239.997 215.2 241.509 214.686C242.98 214.187 244.311 213.343 245.389 212.224C245.894 211.733 246.299 211.148 246.581 210.502C246.806 209.969 246.819 209.37 246.62 208.827C246.348 208.154 245.97 207.53 245.499 206.978C244.984 206.338 244.413 205.666 243.889 205.003C241.688 202.386 239.428 199.864 237.094 197.455L239.152 200.205C240.663 202.008 242.174 203.81 243.63 205.649L244.724 207.022C245.047 207.417 245.343 207.832 245.612 208.266C245.812 208.578 245.957 208.922 246.04 209.283C246.091 209.542 246.072 209.811 245.984 210.06C245.669 210.823 245.173 211.498 244.539 212.026C243.832 212.666 243.031 213.194 242.164 213.592C241.27 213.989 240.327 214.266 239.359 214.413C238.366 214.551 237.36 214.58 236.359 214.499C233.81 214.476 231.304 213.831 229.061 212.621C228.42 212.283 227.807 211.896 227.225 211.464C226.635 211.006 226.07 210.516 225.533 209.996C224.418 208.894 223.43 207.67 222.589 206.347C220.821 203.511 219.489 200.426 218.638 197.196C217.72 193.773 217.034 190.293 216.584 186.778C216.1 183.194 215.778 179.541 215.648 175.847C215.517 172.153 215.562 168.405 215.786 164.676C216.006 160.93 216.419 157.197 217.023 153.493C217.661 149.848 218.612 146.257 220.294 143.138C221.105 141.593 222.135 140.172 223.352 138.921C224.578 137.701 225.961 136.647 227.463 135.788C227.981 135.55 228.544 135.226 229.177 134.912C229.505 134.766 229.848 134.614 230.201 134.453C230.366 134.358 230.566 134.275 230.741 134.212L231.32 134C233.045 133.331 234.835 132.841 236.661 132.54C234.326 132.768 232.028 133.28 229.817 134.066C227.636 134.849 225.613 136.015 223.843 137.51C223.426 137.905 222.984 138.277 222.592 138.7L222.021 139.333C221.825 139.545 221.657 139.782 221.472 140.005C220.752 140.917 220.118 141.894 219.579 142.923C219.292 143.43 219.057 143.973 218.804 144.498C218.55 145.024 218.34 145.585 218.149 146.145C217.738 147.26 217.392 148.398 217.111 149.552C218.123 145.865 219.765 142.539 221.978 140.191C220.726 141.839 219.696 143.644 218.917 145.561C218.155 147.433 217.548 149.363 217.1 151.333C216.629 153.344 216.265 155.38 216.01 157.43C215.73 159.53 215.53 161.696 215.418 163.975C215.496 161.517 215.667 159.078 215.929 156.657C216.167 154.262 216.567 151.886 217.125 149.544C216.358 152.415 215.813 155.34 215.493 158.294C215.123 161.317 214.873 164.402 214.721 167.495C214.698 164.551 214.852 161.608 215.184 158.683C215.481 155.828 215.969 152.995 216.645 150.205C217.313 147.446 218.333 144.784 219.679 142.285C220.377 141.044 221.192 139.873 222.113 138.788L222.442 138.384C222.561 138.249 222.694 138.131 222.82 138.001C223.074 137.743 223.329 137.488 223.586 137.227C223.844 136.969 224.117 136.727 224.404 136.503C224.688 136.264 224.966 136.024 225.25 135.786L223.766 136.913L222.391 138.174C221.53 139.07 220.746 140.038 220.047 141.066C220.748 140.005 221.547 139.013 222.434 138.103C222.904 137.677 223.357 137.228 223.84 136.824C224.323 136.419 224.85 136.049 225.37 135.693C225.331 135.716 225.279 135.746 225.24 135.768C226.837 134.716 228.551 133.855 230.349 133.202C232.154 132.594 234.008 132.138 235.89 131.838C239.546 131.333 243.244 131.212 246.926 131.477C243.627 131.125 240.303 131.072 236.995 131.318C233.757 131.593 230.551 132.224 227.61 133.578C224.619 134.895 222.013 136.95 220.038 139.55C218.093 142.242 216.691 145.288 215.912 148.516C215.376 150.659 214.978 152.834 214.72 155.028C214.965 152.832 215.364 150.656 215.912 148.516C216.382 146.645 217.028 144.823 217.84 143.074C218.653 141.306 219.712 139.661 220.985 138.189C221.639 137.461 222.336 136.772 223.071 136.125L224.233 135.234C224.619 134.937 225.025 134.667 225.448 134.426L226.081 134.062L226.397 133.879L226.722 133.72L228.034 133.081C228.479 132.885 228.936 132.729 229.389 132.547C229.613 132.465 229.838 132.368 230.068 132.296L230.763 132.088C232.599 131.538 234.483 131.167 236.391 130.978L237.826 130.843L239.266 130.781C239.746 130.753 240.224 130.753 240.704 130.757C241.185 130.761 241.645 130.763 242.122 130.778C245.94 130.92 249.743 131.354 253.495 132.077C255.372 132.399 257.233 132.797 259.098 133.187C260.963 133.577 262.803 134.052 264.633 134.575L266.012 134.95L267.373 135.369L268.737 135.79C269.194 135.925 269.645 136.072 270.091 136.236L272.78 137.176L275.431 138.228C278.94 139.671 282.329 141.39 285.567 143.368C288.79 145.358 291.786 147.697 294.498 150.34L295.538 151.328L296.057 151.829L296.534 152.369C296.123 151.586 295.598 150.905 295.154 150.21C294.068 149.053 292.835 148.055 291.641 147.011C291.348 146.739 291.019 146.518 290.706 146.276L289.754 145.561L288.801 144.846C288.489 144.605 288.144 144.406 287.818 144.182L285.824 142.873C285.147 142.463 284.433 142.088 283.765 141.678L282.723 141.084L281.663 140.539L279.538 139.465L277.363 138.491L276.272 138.005L275.164 137.572L272.96 136.694L270.713 135.91L269.588 135.52L268.45 135.174L266.172 134.474L263.878 133.853L262.711 133.553L261.56 133.28L259.254 132.736L256.936 132.242L255.763 131.982L254.6 131.768L252.274 131.335C249.16 130.781 246.015 130.419 242.857 130.251C239.671 130.062 236.474 130.243 233.33 130.79C230.126 131.349 227.06 132.522 224.303 134.244Z" fill="#4DE0AB"/>
</g>
</g>
</g>
</g>
<defs>
<filter id="filter0_d_45_1984" x="0.726807" y="0.598145" width="428.807" height="383.646" filterUnits="userSpaceOnUse" color-interpolation-filters="sRGB">
<feFlood flood-opacity="0" result="BackgroundImageFix"/>
<feColorMatrix in="SourceAlpha" type="matrix" values="0 0 0 0 0 0 0 0 0 0 0 0 0 0 0 0 0 0 127 0" result="hardAlpha"/>
<feOffset dy="4"/>
<feGaussianBlur stdDeviation="66.5"/>
<feComposite in2="hardAlpha" operator="out"/>
<feColorMatrix type="matrix" values="0 0 0 0 0.964462 0 0 0 0 0.937638 0 0 0 0 0.293872 0 0 0 1 0"/>
<feBlend mode="normal" in2="BackgroundImageFix" result="effect1_dropShadow_45_1984"/>
<feBlend mode="normal" in="SourceGraphic" in2="effect1_dropShadow_45_1984" result="shape"/>
</filter>
</defs>
</svg>
