<svg width="384" height="46" viewBox="0 0 384 46" fill="none" xmlns="http://www.w3.org/2000/svg">
<path d="M16.412 35C28.16 35 33.704 28.4 33.704 19.6C33.704 9.21599 26.84 4.19999 16.016 4.19999H0.35199V4.41999H4.26799V34.78H0.35199V35H16.412ZM16.412 34.78C13.464 34.78 13.332 33.724 13.332 29.544V4.41999H14.828C22.748 4.41999 23.672 9.43599 23.672 19.6C23.672 30.82 21.12 34.78 16.412 34.78Z" fill="url(#paint0_linear_233_7)"/>
<path d="M42.4115 10.052C45.1395 10.052 47.3395 7.85199 47.3395 5.12399C47.3395 2.39599 45.1395 0.23999 42.4115 0.23999C39.7275 0.23999 37.5275 2.43999 37.5275 5.12399C37.5275 7.85199 39.7275 10.052 42.4115 10.052ZM46.5035 16.476L46.5915 11.592L34.8435 12.296V12.516L38.3195 12.34V34.78H34.8875V35H49.9355V34.78H46.5035V16.476Z" fill="url(#paint1_linear_233_7)"/>
<path d="M67.3444 28.224C65.4084 28.224 62.1084 28.4 61.4044 28.4C58.8524 28.4 56.2564 28.268 56.2564 26.772C56.2564 26.156 56.7404 25.32 58.5444 24.88C60.3484 25.496 62.4164 25.76 64.4404 25.76C70.1164 25.76 75.9244 23.472 75.9244 18.544C75.9244 14.804 72.5804 12.604 68.4884 11.768C68.4444 9.87599 69.7204 9.03999 71.0404 9.03999C72.5804 9.03999 73.8564 10.096 74.0324 12.076C76.1444 11.944 77.9044 9.96399 77.9044 7.89599C77.9044 5.73999 76.3204 3.89199 73.4604 3.89199C70.1164 3.89199 68.0924 6.57599 68.0924 10.008C68.0924 10.536 68.1364 11.108 68.2684 11.724C67.0364 11.46 65.7604 11.372 64.4844 11.372C58.8084 11.372 53.0004 13.66 53.0004 18.588C53.0004 21.624 55.2004 23.648 58.2364 24.748C53.6164 25.76 51.0204 28.356 51.0204 31.48C51.0204 36.188 56.3884 36.892 60.9204 36.892C63.1644 36.892 65.6724 36.716 67.1244 36.716C70.9964 36.716 72.8004 38.08 72.8004 40.412C72.8004 43.316 69.8084 45.428 63.6924 45.428C58.1924 45.428 56.7844 44.152 56.7844 42.348C56.7844 41.512 57.2244 40.456 58.1924 40.104C58.1044 38.036 56.6084 37.024 54.9364 37.024C52.9564 37.024 51.3724 38.432 51.3724 40.544C51.3724 44.944 57.0044 45.648 63.6924 45.648C72.8444 45.648 77.9484 41.336 77.9484 35.66C77.9484 29.632 72.1404 28.224 67.3444 28.224ZM64.4844 11.548C66.4204 11.548 67.8284 13.176 67.8284 18.544C67.8284 23.956 66.4204 25.54 64.4844 25.54C62.5484 25.54 61.1404 23.956 61.1404 18.544C61.1404 13.176 62.5484 11.548 64.4844 11.548Z" fill="url(#paint2_linear_233_7)"/>
<path d="M86.0248 10.052C88.7528 10.052 90.9528 7.85199 90.9528 5.12399C90.9528 2.39599 88.7528 0.23999 86.0248 0.23999C83.3408 0.23999 81.1408 2.43999 81.1408 5.12399C81.1408 7.85199 83.3408 10.052 86.0248 10.052ZM90.1168 16.476L90.2048 11.592L78.4568 12.296V12.516L81.9328 12.34V34.78H78.5008V35H93.5488V34.78H90.1168V16.476Z" fill="url(#paint3_linear_233_7)"/>
<path d="M103.053 35.352C107.629 35.352 109.433 33.372 109.433 29.324H109.213C109.213 30.776 108.949 33.372 106.969 33.372C105.165 33.372 104.901 31.612 104.901 28.62V12.076H109.433V11.856H104.901V3.09999H104.681C104.505 5.29999 103.801 8.29199 102.657 9.96399C100.809 11.328 97.9492 11.856 94.5611 11.856H93.5491V12.076H96.7611V29.06C96.7611 33.504 99.0931 35.352 103.053 35.352Z" fill="url(#paint4_linear_233_7)"/>
<path d="M137.15 29.236C137.15 30.556 136.93 33.284 135.258 33.284C133.938 33.284 133.85 31.524 133.85 28.752V18.324C133.85 13.22 128.394 11.504 122.234 11.504C119.11 11.504 112.246 12.648 112.246 17.84C112.246 20.304 114.006 21.8 116.382 21.8C118.362 21.8 120.166 20.612 120.298 18.104C119.374 17.708 118.758 16.52 118.758 15.42C118.758 13.396 119.858 11.724 122.234 11.724C125.226 11.724 125.666 14.804 125.666 17.488V20.392C120.65 23.78 110.794 22.592 110.794 29.544C110.794 33.328 113.434 35.352 117.57 35.352C121.398 35.352 124.918 33.196 125.71 30.116C125.974 33.592 127.602 35.264 131.166 35.264C135.522 35.264 137.326 33.284 137.326 29.236H137.15ZM122.806 32.536C120.43 32.536 119.726 29.896 119.726 27.916C119.726 22.944 122.498 22.68 125.622 20.656V29.236C125.622 30.776 124.566 32.536 122.806 32.536Z" fill="url(#paint5_linear_233_7)"/>
<path d="M148.425 0.23999L136.765 0.94399V1.16399L140.285 0.987988V34.78H136.853V35H151.857V34.78H148.425V0.23999Z" fill="url(#paint6_linear_233_7)"/>
<path d="M180.493 11.504C177.105 11.504 173.673 13.396 172.573 18.5L172.705 11.592L160.957 12.296V12.516L164.477 12.34V44.68H161.045V44.9H176.929V44.68H172.617V30.556C173.145 33.68 174.597 35.352 178.161 35.352C183.749 35.352 188.677 30.732 188.677 22.416C188.677 15.508 185.245 11.504 180.493 11.504ZM175.829 34.384C173.805 34.384 172.617 31.832 172.617 28.488V19.292C173.321 15.42 175.213 13.176 176.973 13.176C179.261 13.176 179.701 15.816 179.701 21.976C179.701 29.28 179.041 34.428 175.829 34.428V34.384Z" fill="url(#paint7_linear_233_7)"/>
<path d="M200.675 0.23999L189.015 0.94399V1.16399L192.535 0.987988V34.78H189.103V35H204.107V34.78H200.675V0.23999Z" fill="url(#paint8_linear_233_7)"/>
<path d="M231.681 29.236C231.681 30.556 231.461 33.284 229.789 33.284C228.469 33.284 228.381 31.524 228.381 28.752V18.324C228.381 13.22 222.925 11.504 216.765 11.504C213.641 11.504 206.777 12.648 206.777 17.84C206.777 20.304 208.537 21.8 210.913 21.8C212.893 21.8 214.697 20.612 214.829 18.104C213.905 17.708 213.289 16.52 213.289 15.42C213.289 13.396 214.389 11.724 216.765 11.724C219.757 11.724 220.197 14.804 220.197 17.488V20.392C215.181 23.78 205.325 22.592 205.325 29.544C205.325 33.328 207.965 35.352 212.101 35.352C215.929 35.352 219.449 33.196 220.241 30.116C220.505 33.592 222.133 35.264 225.697 35.264C230.053 35.264 231.857 33.284 231.857 29.236H231.681ZM217.337 32.536C214.961 32.536 214.257 29.896 214.257 27.916C214.257 22.944 217.029 22.68 220.153 20.656V29.236C220.153 30.776 219.097 32.536 217.337 32.536Z" fill="url(#paint9_linear_233_7)"/>
<path d="M240.811 35.352C245.387 35.352 247.191 33.372 247.191 29.324H246.971C246.971 30.776 246.707 33.372 244.727 33.372C242.923 33.372 242.659 31.612 242.659 28.62V12.076H247.191V11.856H242.659V3.09999H242.439C242.263 5.29999 241.559 8.29199 240.415 9.96399C238.567 11.328 235.707 11.856 232.319 11.856H231.307V12.076H234.519V29.06C234.519 33.504 236.851 35.352 240.811 35.352Z" fill="url(#paint10_linear_233_7)"/>
<path d="M262.521 35V34.78H258.648V12.076H262.521V11.856H258.868C254.512 11.856 252.356 8.55599 252.356 5.29999C252.356 2.87999 253.632 0.85599 255.964 0.85599C257.548 0.85599 258.428 2.08799 258.428 3.40799C258.428 4.90399 257.505 5.82799 256.405 6.22399C256.669 8.95199 258.428 10.184 260.629 10.184C263.137 10.184 265.029 8.37999 265.029 5.69599C265.029 2.17599 261.596 0.23999 258.077 0.23999C252.621 0.23999 250.2 3.36399 250.2 8.07199C250.2 9.34799 250.376 10.712 250.596 11.856H247.076V12.076H250.508V34.78H247.076V35H262.521Z" fill="url(#paint11_linear_233_7)"/>
<path d="M276.148 11.504C268.932 11.504 263.3 16.388 263.3 23.428C263.3 30.468 268.932 35.352 276.148 35.352C283.364 35.352 288.996 30.468 288.996 23.428C288.996 16.388 283.364 11.504 276.148 11.504ZM276.148 35.132C272.716 35.132 272.276 30.16 272.276 23.428C272.276 17.136 272.716 11.724 276.148 11.724C279.58 11.724 280.02 17.136 280.02 23.428C280.02 30.16 279.58 35.132 276.148 35.132Z" fill="url(#paint12_linear_233_7)"/>
<path d="M309.217 11.504C306.137 11.504 302.705 13.572 301.737 18.72V18.676L301.869 11.592L290.121 12.296V12.516L293.641 12.34V34.78H290.209V35H305.653V34.78H301.781V19.424C302.529 15.112 304.685 13 306.445 13C307.633 13 308.293 13.924 308.293 15.376C308.293 16.916 307.413 18.016 306.093 18.456C306.225 20.964 308.029 22.152 310.009 22.152C312.869 22.152 314.893 19.908 314.893 16.96C314.893 13.704 312.473 11.548 309.217 11.548V11.504Z" fill="url(#paint13_linear_233_7)"/>
<path d="M356.3 18.632C356.3 13.792 353.792 11.548 349.788 11.548C346.488 11.548 342.836 13.044 341.78 18.5C341.736 13.748 339.228 11.548 335.268 11.548C331.968 11.548 328.272 13.088 327.26 18.72V18.676L327.392 11.592L315.644 12.296V12.516L319.164 12.34V34.78H315.732V35H329.724V34.78H327.304V19.424C328.052 15.112 329.9 13.088 331.792 13.088C333.728 13.088 333.64 15.112 333.64 16.432V34.78H331.264V35H344.2V34.78H341.824V19.424C342.572 15.112 344.42 13.132 346.268 13.132C348.248 13.132 348.16 15.112 348.16 16.432V34.824H345.74V35.044H359.732V34.824H356.3V18.632Z" fill="url(#paint14_linear_233_7)"/>
<path d="M367.425 14.98C367.425 13.176 369.141 11.724 372.265 11.724C375.653 11.724 379.525 13.748 380.713 19.38H380.889L380.449 11.592L377.941 12.604C376.357 12.032 374.201 11.548 372.265 11.548C366.853 11.548 361.001 13.572 361.001 18.984C361.001 27.652 376.973 27.124 376.973 31.92C376.973 34.384 374.113 35.176 371.297 35.176C368.129 35.176 362.365 33.46 361.177 25.892H361.001L361.485 35.308L364.477 34.208C367.293 35.044 369.537 35.396 371.297 35.396C377.545 35.396 383.089 33.02 383.089 27.388C383.089 18.72 367.425 20.04 367.425 15.024V14.98Z" fill="url(#paint15_linear_233_7)"/>
<defs>
<linearGradient id="paint0_linear_233_7" x1="6.49468" y1="10.4754" x2="205.83" y2="14.4031" gradientUnits="userSpaceOnUse">
<stop stop-color="#5EDEAA"/>
<stop offset="0.546875" stop-color="#4DE0AB"/>
<stop offset="1" stop-color="#B1DF5D"/>
</linearGradient>
<linearGradient id="paint1_linear_233_7" x1="6.49468" y1="10.4754" x2="205.83" y2="14.4031" gradientUnits="userSpaceOnUse">
<stop stop-color="#5EDEAA"/>
<stop offset="0.546875" stop-color="#4DE0AB"/>
<stop offset="1" stop-color="#B1DF5D"/>
</linearGradient>
<linearGradient id="paint2_linear_233_7" x1="6.49468" y1="10.4754" x2="205.83" y2="14.4031" gradientUnits="userSpaceOnUse">
<stop stop-color="#5EDEAA"/>
<stop offset="0.546875" stop-color="#4DE0AB"/>
<stop offset="1" stop-color="#B1DF5D"/>
</linearGradient>
<linearGradient id="paint3_linear_233_7" x1="6.49468" y1="10.4754" x2="205.83" y2="14.4031" gradientUnits="userSpaceOnUse">
<stop stop-color="#5EDEAA"/>
<stop offset="0.546875" stop-color="#4DE0AB"/>
<stop offset="1" stop-color="#B1DF5D"/>
</linearGradient>
<linearGradient id="paint4_linear_233_7" x1="6.49468" y1="10.4754" x2="205.83" y2="14.4031" gradientUnits="userSpaceOnUse">
<stop stop-color="#5EDEAA"/>
<stop offset="0.546875" stop-color="#4DE0AB"/>
<stop offset="1" stop-color="#B1DF5D"/>
</linearGradient>
<linearGradient id="paint5_linear_233_7" x1="6.49468" y1="10.4754" x2="205.83" y2="14.4031" gradientUnits="userSpaceOnUse">
<stop stop-color="#5EDEAA"/>
<stop offset="0.546875" stop-color="#4DE0AB"/>
<stop offset="1" stop-color="#B1DF5D"/>
</linearGradient>
<linearGradient id="paint6_linear_233_7" x1="6.49468" y1="10.4754" x2="205.83" y2="14.4031" gradientUnits="userSpaceOnUse">
<stop stop-color="#5EDEAA"/>
<stop offset="0.546875" stop-color="#4DE0AB"/>
<stop offset="1" stop-color="#B1DF5D"/>
</linearGradient>
<linearGradient id="paint7_linear_233_7" x1="6.49468" y1="10.4754" x2="205.83" y2="14.4031" gradientUnits="userSpaceOnUse">
<stop stop-color="#5EDEAA"/>
<stop offset="0.546875" stop-color="#4DE0AB"/>
<stop offset="1" stop-color="#B1DF5D"/>
</linearGradient>
<linearGradient id="paint8_linear_233_7" x1="6.49468" y1="10.4754" x2="205.83" y2="14.4031" gradientUnits="userSpaceOnUse">
<stop stop-color="#5EDEAA"/>
<stop offset="0.546875" stop-color="#4DE0AB"/>
<stop offset="1" stop-color="#B1DF5D"/>
</linearGradient>
<linearGradient id="paint9_linear_233_7" x1="6.49468" y1="10.4754" x2="205.83" y2="14.4031" gradientUnits="userSpaceOnUse">
<stop stop-color="#5EDEAA"/>
<stop offset="0.546875" stop-color="#4DE0AB"/>
<stop offset="1" stop-color="#B1DF5D"/>
</linearGradient>
<linearGradient id="paint10_linear_233_7" x1="6.49468" y1="10.4754" x2="205.83" y2="14.4031" gradientUnits="userSpaceOnUse">
<stop stop-color="#5EDEAA"/>
<stop offset="0.546875" stop-color="#4DE0AB"/>
<stop offset="1" stop-color="#B1DF5D"/>
</linearGradient>
<linearGradient id="paint11_linear_233_7" x1="6.49468" y1="10.4754" x2="205.83" y2="14.4031" gradientUnits="userSpaceOnUse">
<stop stop-color="#5EDEAA"/>
<stop offset="0.546875" stop-color="#4DE0AB"/>
<stop offset="1" stop-color="#B1DF5D"/>
</linearGradient>
<linearGradient id="paint12_linear_233_7" x1="6.49468" y1="10.4754" x2="205.83" y2="14.4031" gradientUnits="userSpaceOnUse">
<stop stop-color="#5EDEAA"/>
<stop offset="0.546875" stop-color="#4DE0AB"/>
<stop offset="1" stop-color="#B1DF5D"/>
</linearGradient>
<linearGradient id="paint13_linear_233_7" x1="6.49468" y1="10.4754" x2="205.83" y2="14.4031" gradientUnits="userSpaceOnUse">
<stop stop-color="#5EDEAA"/>
<stop offset="0.546875" stop-color="#4DE0AB"/>
<stop offset="1" stop-color="#B1DF5D"/>
</linearGradient>
<linearGradient id="paint14_linear_233_7" x1="6.49468" y1="10.4754" x2="205.83" y2="14.4031" gradientUnits="userSpaceOnUse">
<stop stop-color="#5EDEAA"/>
<stop offset="0.546875" stop-color="#4DE0AB"/>
<stop offset="1" stop-color="#B1DF5D"/>
</linearGradient>
<linearGradient id="paint15_linear_233_7" x1="6.49468" y1="10.4754" x2="205.83" y2="14.4031" gradientUnits="userSpaceOnUse">
<stop stop-color="#5EDEAA"/>
<stop offset="0.546875" stop-color="#4DE0AB"/>
<stop offset="1" stop-color="#B1DF5D"/>
</linearGradient>
</defs>
</svg>
