<svg width="297" height="36" viewBox="0 0 297 36" fill="none" xmlns="http://www.w3.org/2000/svg">
<path d="M17.084 3.848C7.844 3.848 0.32 9.568 0.32 19.6C0.32 29.632 7.844 35.352 17.084 35.352C26.324 35.352 33.848 29.632 33.848 19.6C33.848 9.568 26.324 3.848 17.084 3.848ZM17.084 35.132C10.792 35.132 10.352 26.332 10.352 19.6C10.352 12.868 10.792 4.068 17.084 4.068C23.376 4.068 23.816 12.868 23.816 19.6C23.816 26.332 23.376 35.132 17.084 35.132ZM61.4917 11.592L49.7877 12.296V12.516L53.3077 12.34V28.092C52.7797 32.36 51.1517 33.988 49.3477 33.988C46.6637 33.988 46.6637 30.82 46.6637 29.148V11.592L35.0037 12.296V12.516L38.5237 12.34V28.224C38.5237 31.568 39.7557 35.352 45.7397 35.352C50.4477 35.352 52.6917 33.328 53.3517 29.06L53.3077 35.044H64.4397V34.824H61.4477L61.4917 11.592ZM82.9747 11.504C79.8947 11.504 76.4627 13.572 75.4947 18.72V18.676L75.6267 11.592L63.8787 12.296V12.516L67.3987 12.34V34.78H63.9667V35H79.4107V34.78H75.5387V19.424C76.2867 15.112 78.4427 13 80.2027 13C81.3907 13 82.0507 13.924 82.0507 15.376C82.0507 16.916 81.1707 18.016 79.8507 18.456C79.9827 20.964 81.7867 22.152 83.7667 22.152C86.6267 22.152 88.6507 19.908 88.6507 16.96C88.6507 13.704 86.2307 11.548 82.9747 11.548V11.504ZM106.172 8.512C106.172 5.872 108.416 4.068 112.112 4.068C119.196 4.068 122.232 9.348 122.804 14.76H123.024L122.452 3.936L119.768 5.08C118.58 4.64 114.532 3.848 112.112 3.848C105.204 3.848 99.3956 7.016 99.3956 12.956C99.3956 23.604 118.58 22.944 118.58 30.336C118.58 33.592 115.412 35.132 111.408 35.132C103.488 35.132 100.496 28.356 99.7916 22.504H99.5716L100.276 35.264L102.872 34.164C104.28 34.604 107.8 35.352 111.408 35.352C118.844 35.352 125.356 31.568 125.356 25.364C125.356 14.408 106.172 15.464 106.172 8.512ZM150.606 26.684C149.066 29.544 146.03 30.38 143.742 30.38C139.43 30.38 136.086 27.212 135.822 20.964H150.518C151.574 15.376 147.922 11.504 140.266 11.504C132.566 11.504 127.55 16.652 127.55 23.868C127.55 31.084 132.83 35.396 138.858 35.396C144.974 35.396 148.846 31.48 150.782 26.816L150.606 26.684ZM140.266 11.724C143.698 11.724 143.082 17.928 142.686 20.656H135.822C135.822 20.524 135.822 20.348 135.822 20.216C135.822 17.268 136.482 11.724 140.266 11.724ZM170.674 11.504C167.594 11.504 164.162 13.572 163.194 18.72V18.676L163.326 11.592L151.578 12.296V12.516L155.098 12.34V34.78H151.666V35H167.11V34.78H163.238V19.424C163.986 15.112 166.142 13 167.902 13C169.09 13 169.75 13.924 169.75 15.376C169.75 16.916 168.87 18.016 167.55 18.456C167.682 20.964 169.486 22.152 171.466 22.152C174.326 22.152 176.35 19.908 176.35 16.96C176.35 13.704 173.93 11.548 170.674 11.548V11.504ZM198.154 12.076H203.038L195.91 26.508L188.87 12.076H192.566V11.856H176.682V12.076H179.63L191.598 35.88L203.346 12.076H206.558V11.856H198.154V12.076ZM213.587 10.052C216.315 10.052 218.515 7.852 218.515 5.124C218.515 2.396 216.315 0.239999 213.587 0.239999C210.903 0.239999 208.703 2.44 208.703 5.124C208.703 7.852 210.903 10.052 213.587 10.052ZM217.679 16.476L217.767 11.592L206.019 12.296V12.516L209.495 12.34V34.78H206.063V35H221.111V34.78H217.679V16.476ZM235.704 11.724C237.948 11.724 239.136 13.396 239.136 15.376C239.136 16.52 238.52 17.664 237.596 18.104C237.728 20.612 239.488 21.8 241.468 21.8C243.844 21.8 245.648 20.216 245.648 17.752C245.648 12.56 238.74 11.504 235.528 11.504C227.828 11.504 222.812 16.608 222.812 23.824C222.812 31.084 228.092 35.352 234.12 35.352C240.236 35.352 244.108 31.436 246.044 26.772L245.868 26.684C244.328 29.544 241.292 30.38 239.004 30.38C234.56 30.38 231.084 26.948 231.084 20.172C231.084 17.268 231.744 11.724 235.704 11.724ZM271.22 26.684C269.68 29.544 266.644 30.38 264.356 30.38C260.044 30.38 256.7 27.212 256.436 20.964H271.132C272.188 15.376 268.536 11.504 260.88 11.504C253.18 11.504 248.164 16.652 248.164 23.868C248.164 31.084 253.444 35.396 259.472 35.396C265.588 35.396 269.46 31.48 271.396 26.816L271.22 26.684ZM260.88 11.724C264.312 11.724 263.696 17.928 263.3 20.656H256.436C256.436 20.524 256.436 20.348 256.436 20.216C256.436 17.268 257.096 11.724 260.88 11.724ZM280.531 14.98C280.531 13.176 282.247 11.724 285.371 11.724C288.759 11.724 292.631 13.748 293.819 19.38H293.995L293.555 11.592L291.047 12.604C289.463 12.032 287.307 11.548 285.371 11.548C279.959 11.548 274.107 13.572 274.107 18.984C274.107 27.652 290.079 27.124 290.079 31.92C290.079 34.384 287.219 35.176 284.403 35.176C281.235 35.176 275.471 33.46 274.283 25.892H274.107L274.591 35.308L277.583 34.208C280.399 35.044 282.643 35.396 284.403 35.396C290.651 35.396 296.195 33.02 296.195 27.388C296.195 18.72 280.531 20.04 280.531 15.024V14.98Z" fill="url(#paint0_linear_48_2372)"/>
<defs>
<linearGradient id="paint0_linear_48_2372" x1="3.79877" y1="5.75" x2="159.562" y2="7.53484" gradientUnits="userSpaceOnUse">
<stop stop-color="#5EDEAA"/>
<stop offset="0.546875" stop-color="#4DE0AB"/>
<stop offset="1" stop-color="#B1DF5D"/>
</linearGradient>
</defs>
</svg>
