<svg width="323" height="46" viewBox="0 0 323 46" fill="none" xmlns="http://www.w3.org/2000/svg">
<path d="M21.648 11.836H26.532L19.404 26.268L12.364 11.836H16.06V11.616H0V11.836H3.124L14.916 35.376C12.188 41.404 9.68 43.956 7.744 43.956C6.908 43.956 6.16 43.56 6.16 42.372C6.16 41.052 7.436 40.128 8.712 39.688C8.58 36.916 6.996 35.64 4.796 35.64C2.288 35.64 0.264 37.752 0.264 40.172C0.264 42.284 1.584 45.012 5.368 45.012C10.736 45.012 13.112 39.6 15.092 35.64L26.84 11.836H30.14V11.616H21.648V11.836Z" fill="#373737"/>
<path d="M40.4157 11.264C33.1997 11.264 27.5677 16.148 27.5677 23.188C27.5677 30.228 33.1997 35.112 40.4157 35.112C47.6317 35.112 53.2637 30.228 53.2637 23.188C53.2637 16.148 47.6317 11.264 40.4157 11.264ZM40.4157 34.892C36.9837 34.892 36.5437 29.92 36.5437 23.188C36.5437 16.896 36.9837 11.484 40.4157 11.484C43.8477 11.484 44.2877 16.896 44.2877 23.188C44.2877 29.92 43.8477 34.892 40.4157 34.892Z" fill="#373737"/>
<path d="M80.2316 11.352L68.5276 12.056V12.276L72.0476 12.1V27.852C71.5196 32.12 69.8916 33.748 68.0876 33.748C65.4036 33.748 65.4036 30.58 65.4036 28.908V11.352L53.7436 12.056V12.276L57.2636 12.1V27.984C57.2636 31.328 58.4956 35.112 64.4796 35.112C69.1876 35.112 71.4316 33.088 72.0916 28.82L72.0476 34.804H83.1796V34.584H80.1876L80.2316 11.352Z" fill="#373737"/>
<path d="M101.715 11.264C98.6346 11.264 95.2026 13.332 94.2346 18.48V18.436L94.3666 11.352L82.6186 12.056V12.276L86.1386 12.1V34.54H82.7066V34.76H98.1506V34.54H94.2786V19.184C95.0266 14.872 97.1826 12.76 98.9426 12.76C100.131 12.76 100.791 13.684 100.791 15.136C100.791 16.676 99.9106 17.776 98.5906 18.216C98.7226 20.724 100.527 21.912 102.507 21.912C105.367 21.912 107.391 19.668 107.391 16.72C107.391 13.464 104.971 11.308 101.715 11.308V11.264Z" fill="#373737"/>
<path d="M136.616 11.264C133.228 11.264 129.796 13.156 128.696 18.26L128.828 11.352L117.08 12.056V12.276L120.6 12.1V44.44H117.168V44.66H133.052V44.44H128.74V30.316C129.268 33.44 130.72 35.112 134.284 35.112C139.872 35.112 144.8 30.492 144.8 22.176C144.8 15.268 141.368 11.264 136.616 11.264ZM131.952 34.144C129.928 34.144 128.74 31.592 128.74 28.248V19.052C129.444 15.18 131.336 12.936 133.096 12.936C135.384 12.936 135.824 15.576 135.824 21.736C135.824 29.04 135.164 34.188 131.952 34.188V34.144Z" fill="#373737"/>
<path d="M165.093 11.264C162.013 11.264 158.581 13.332 157.613 18.48V18.436L157.745 11.352L145.997 12.056V12.276L149.517 12.1V34.54H146.085V34.76H161.529V34.54H157.657V19.184C158.405 14.872 160.561 12.76 162.321 12.76C163.509 12.76 164.169 13.684 164.169 15.136C164.169 16.676 163.29 17.776 161.969 18.216C162.102 20.724 163.906 21.912 165.885 21.912C168.745 21.912 170.77 19.668 170.77 16.72C170.77 13.464 168.349 11.308 165.093 11.308V11.264Z" fill="#373737"/>
<path d="M185.006 11.264C177.79 11.264 172.158 16.148 172.158 23.188C172.158 30.228 177.79 35.112 185.006 35.112C192.222 35.112 197.854 30.228 197.854 23.188C197.854 16.148 192.222 11.264 185.006 11.264ZM185.006 34.892C181.574 34.892 181.134 29.92 181.134 23.188C181.134 16.896 181.574 11.484 185.006 11.484C188.438 11.484 188.878 16.896 188.878 23.188C188.878 29.92 188.438 34.892 185.006 34.892Z" fill="#373737"/>
<path d="M217.133 11.264C213.701 11.264 210.269 13.156 209.169 18.26L209.301 0L197.553 0.704V0.923999L201.073 0.747998V35.068L205.605 32.12C208.333 34.54 210.929 35.112 212.733 35.112C220.169 35.112 225.273 29.568 225.273 21.824C225.273 15.224 221.841 11.264 217.133 11.264ZM212.733 34.892C209.257 34.892 209.213 30.712 209.213 27.72V19.052C209.917 15.18 211.809 12.892 213.569 12.892C215.901 12.892 216.297 16.148 216.297 22.924C216.297 31.768 215.593 34.892 212.733 34.892Z" fill="#373737"/>
<path d="M237.279 0L225.619 0.704V0.923999L229.139 0.747998V34.54H225.707V34.76H240.711V34.54H237.279V0Z" fill="#373737"/>
<path d="M264.565 26.444C263.025 29.304 259.989 30.14 257.701 30.14C253.389 30.14 250.045 26.972 249.781 20.724H264.477C265.533 15.136 261.881 11.264 254.225 11.264C246.525 11.264 241.509 16.412 241.509 23.628C241.509 30.844 246.789 35.156 252.817 35.156C258.933 35.156 262.805 31.24 264.741 26.576L264.565 26.444ZM254.225 11.484C257.657 11.484 257.041 17.688 256.645 20.416H249.781C249.781 20.284 249.781 20.108 249.781 19.976C249.781 17.028 250.441 11.484 254.225 11.484Z" fill="#373737"/>
<path d="M306.193 18.392C306.193 13.552 303.685 11.308 299.681 11.308C296.381 11.308 292.729 12.804 291.673 18.26C291.629 13.508 289.121 11.308 285.161 11.308C281.861 11.308 278.165 12.848 277.153 18.48V18.436L277.285 11.352L265.537 12.056V12.276L269.057 12.1V34.54H265.625V34.76H279.617V34.54H277.197V19.184C277.945 14.872 279.793 12.848 281.685 12.848C283.621 12.848 283.533 14.872 283.533 16.192V34.54H281.157V34.76H294.093V34.54H291.717V19.184C292.465 14.872 294.313 12.892 296.161 12.892C298.141 12.892 298.053 14.872 298.053 16.192V34.584H295.633V34.804H309.625V34.584H306.193V18.392Z" fill="#373737"/>
<path d="M317.273 24.112C317.361 16.94 322.597 14.74 322.597 9.9C322.597 7.216 320.793 4.884 317.185 2.42C313.577 4.884 311.773 7.216 311.773 9.9C311.773 14.74 317.009 16.94 317.097 24.112H317.273ZM317.185 35.112C319.693 35.112 321.805 33.176 321.805 30.712C321.805 28.292 319.737 26.312 317.185 26.312C314.633 26.312 312.565 28.292 312.565 30.712C312.565 33.132 314.633 35.112 317.185 35.112Z" fill="#373737"/>
</svg>
