<svg width="190" height="46" viewBox="0 0 190 46" fill="none" xmlns="http://www.w3.org/2000/svg">
<path d="M17.996 35V34.78H13.332V22.152H14.608C21.076 22.152 30.492 20.656 30.492 13.132C30.492 6.752 25.388 4.2 15.752 4.2H0.352V4.42H4.268V34.78H0.352V35H17.996ZM13.332 4.42H14.608C19.272 4.42 20.812 7.148 20.812 13.132C20.812 19.16 19.272 21.932 14.608 21.932H13.332V4.42ZM50.7169 11.504C47.6369 11.504 44.2049 13.572 43.2369 18.72V18.676L43.3689 11.592L31.6209 12.296V12.516L35.1409 12.34V34.78H31.7089V35H47.1529V34.78H43.2809V19.424C44.0289 15.112 46.1849 13 47.9449 13C49.1329 13 49.7929 13.924 49.7929 15.376C49.7929 16.916 48.9129 18.016 47.5929 18.456C47.7249 20.964 49.5289 22.152 51.5089 22.152C54.3689 22.152 56.3929 19.908 56.3929 16.96C56.3929 13.704 53.9729 11.548 50.7169 11.548V11.504ZM70.6289 11.504C63.4129 11.504 57.7809 16.388 57.7809 23.428C57.7809 30.468 63.4129 35.352 70.6289 35.352C77.8449 35.352 83.4769 30.468 83.4769 23.428C83.4769 16.388 77.8449 11.504 70.6289 11.504ZM70.6289 35.132C67.1969 35.132 66.7569 30.16 66.7569 23.428C66.7569 17.136 67.1969 11.724 70.6289 11.724C74.0609 11.724 74.5009 17.136 74.5009 23.428C74.5009 30.16 74.0609 35.132 70.6289 35.132ZM92.7413 10.052C95.4693 10.052 97.6253 7.852 97.6253 5.124C97.6253 2.396 95.4693 0.239999 92.7413 0.239999C90.0573 0.239999 87.8133 2.44 87.8133 5.124C87.8133 7.852 90.0573 10.052 92.7413 10.052ZM88.6493 12.34V33.636C92.6973 34.34 95.0733 36.936 95.0733 40.28C95.0733 42.612 93.7973 44.68 91.5093 44.68C89.8813 44.68 89.0013 43.448 89.0013 42.084C89.0013 40.632 89.8813 39.708 90.9813 39.268C90.7173 36.54 89.0013 35.308 86.8013 35.308C84.2493 35.308 82.4013 37.2 82.4013 39.708C82.4013 43.272 85.8773 45.252 89.3973 45.252C94.8533 45.252 96.8333 42.172 96.8333 37.464V16.564L96.9213 11.592L85.1293 12.296V12.516L88.6493 12.34ZM123.849 26.684C122.309 29.544 119.273 30.38 116.985 30.38C112.673 30.38 109.329 27.212 109.065 20.964H123.761C124.817 15.376 121.165 11.504 113.509 11.504C105.809 11.504 100.793 16.652 100.793 23.868C100.793 31.084 106.073 35.396 112.101 35.396C118.217 35.396 122.089 31.48 124.025 26.816L123.849 26.684ZM113.509 11.724C116.941 11.724 116.325 17.928 115.929 20.656H109.065C109.065 20.524 109.065 20.348 109.065 20.216C109.065 17.268 109.725 11.724 113.509 11.724ZM139.208 11.724C141.452 11.724 142.64 13.396 142.64 15.376C142.64 16.52 142.024 17.664 141.1 18.104C141.232 20.612 142.992 21.8 144.972 21.8C147.348 21.8 149.152 20.216 149.152 17.752C149.152 12.56 142.244 11.504 139.032 11.504C131.332 11.504 126.316 16.608 126.316 23.824C126.316 31.084 131.596 35.352 137.624 35.352C143.74 35.352 147.612 31.436 149.548 26.772L149.372 26.684C147.832 29.544 144.796 30.38 142.508 30.38C138.064 30.38 134.588 26.948 134.588 20.172C134.588 17.268 135.248 11.724 139.208 11.724ZM160.116 35.352C164.692 35.352 166.496 33.372 166.496 29.324H166.276C166.276 30.776 166.012 33.372 164.032 33.372C162.228 33.372 161.964 31.612 161.964 28.62V12.076H166.496V11.856H161.964V3.1H161.744C161.568 5.3 160.864 8.292 159.72 9.964C157.872 11.328 155.012 11.856 151.624 11.856H150.612V12.076H153.824V29.06C153.824 33.504 156.156 35.352 160.116 35.352ZM173.421 14.98C173.421 13.176 175.137 11.724 178.261 11.724C181.649 11.724 185.521 13.748 186.709 19.38H186.885L186.445 11.592L183.937 12.604C182.353 12.032 180.197 11.548 178.261 11.548C172.849 11.548 166.997 13.572 166.997 18.984C166.997 27.652 182.969 27.124 182.969 31.92C182.969 34.384 180.109 35.176 177.293 35.176C174.125 35.176 168.361 33.46 167.173 25.892H166.997L167.481 35.308L170.473 34.208C173.289 35.044 175.533 35.396 177.293 35.396C183.541 35.396 189.085 33.02 189.085 27.388C189.085 18.72 173.421 20.04 173.421 15.024V14.98Z" fill="url(#paint0_linear_19_303)"/>
<defs>
<linearGradient id="paint0_linear_19_303" x1="3.04938" y1="5.75" x2="102.037" y2="6.47077" gradientUnits="userSpaceOnUse">
<stop stop-color="#5EDEAA"/>
<stop offset="0.546875" stop-color="#4DE0AB"/>
<stop offset="1" stop-color="#B1DF5D"/>
</linearGradient>
</defs>
</svg>
