<svg width="264" height="309" viewBox="0 0 264 309" fill="none" xmlns="http://www.w3.org/2000/svg">
<path d="M104.168 38.9276C107.303 15.8405 129.51 -0.0689093 165.346 4.79697C204.211 10.0741 245.11 42.0075 248.951 115.935L250.97 116.209L259.456 15.8549L228.928 24.8998C211.751 15.1123 187.86 5.56006 165.652 2.54459C103.57 -5.88504 32.9233 10.9025 23.519 80.1636C8.45664 191.094 192.592 209.215 184.258 270.592C179.977 302.126 145.793 307.807 113.49 303.421C77.149 298.486 14.0109 267.548 13.5339 168.844L11.515 168.57L0.704927 289.827L36.9383 280.41C67.7885 295.495 92.9182 303.495 113.108 306.236C184.78 315.968 252.505 294.196 262.292 222.119C277.354 111.189 95.375 103.684 104.091 39.4907L104.168 38.9276Z" fill="url(#paint0_linear_48_2367)"/>
<defs>
<linearGradient id="paint0_linear_48_2367" x1="163.128" y1="2.20192" x2="121.688" y2="307.401" gradientUnits="userSpaceOnUse">
<stop stopColor="#5EDEAA"/>
<stop offset="0.288127" stopColor="#4DE0AB"/>
<stop offset="1" stopColor="#B1DF5D"/>
</linearGradient>
</defs>
</svg>
