<svg width="236" height="36" viewBox="0 0 236 36" fill="none" xmlns="http://www.w3.org/2000/svg">
<path d="M6.424 14.74C6.424 12.936 8.14 11.484 11.264 11.484C14.652 11.484 18.524 13.508 19.712 19.14H19.888L19.448 11.352L16.94 12.364C15.356 11.792 13.2 11.308 11.264 11.308C5.852 11.308 0 13.332 0 18.744C0 27.412 15.972 26.884 15.972 31.68C15.972 34.144 13.112 34.936 10.296 34.936C7.128 34.936 1.364 33.22 0.176 25.652H0L0.484 35.068L3.476 33.968C6.292 34.804 8.536 35.156 10.296 35.156C16.544 35.156 22.088 32.78 22.088 27.148C22.088 18.48 6.424 19.8 6.424 14.784V14.74Z" fill="#373737"/>
<path d="M37.3505 11.264C30.1345 11.264 24.5025 16.148 24.5025 23.188C24.5025 30.228 30.1345 35.112 37.3505 35.112C44.5665 35.112 50.1985 30.228 50.1985 23.188C50.1985 16.148 44.5665 11.264 37.3505 11.264ZM37.3505 34.892C33.9185 34.892 33.4785 29.92 33.4785 23.188C33.4785 16.896 33.9185 11.484 37.3505 11.484C40.7825 11.484 41.2225 16.896 41.2225 23.188C41.2225 29.92 40.7825 34.892 37.3505 34.892Z" fill="#373737"/>
<path d="M62.1235 0L50.4635 0.704V0.923999L53.9835 0.747998V34.54H50.5515V34.76H65.5555V34.54H62.1235V0Z" fill="#373737"/>
<path d="M92.2054 11.352L80.5014 12.056V12.276L84.0214 12.1V27.852C83.4934 32.12 81.8654 33.748 80.0614 33.748C77.3774 33.748 77.3774 30.58 77.3774 28.908V11.352L65.7174 12.056V12.276L69.2374 12.1V27.984C69.2374 31.328 70.4694 35.112 76.4534 35.112C81.1614 35.112 83.4054 33.088 84.0654 28.82L84.0214 34.804H95.1534V34.584H92.1614L92.2054 11.352Z" fill="#373737"/>
<path d="M104.536 35.112C109.112 35.112 110.916 33.132 110.916 29.084H110.696C110.696 30.536 110.432 33.132 108.452 33.132C106.648 33.132 106.384 31.372 106.384 28.38V11.836H110.916V11.616H106.384V2.86H106.164C105.988 5.06 105.284 8.052 104.14 9.724C102.292 11.088 99.4324 11.616 96.0444 11.616H95.0324V11.836H98.2444V28.82C98.2444 33.264 100.576 35.112 104.536 35.112Z" fill="#373737"/>
<path d="M117.93 9.812C120.658 9.812 122.858 7.612 122.858 4.884C122.858 2.156 120.658 0 117.93 0C115.246 0 113.046 2.2 113.046 4.884C113.046 7.612 115.246 9.812 117.93 9.812ZM122.022 16.236L122.11 11.352L110.362 12.056V12.276L113.838 12.1V34.54H110.406V34.76H125.454V34.54H122.022V16.236Z" fill="#373737"/>
<path d="M140.003 11.264C132.787 11.264 127.155 16.148 127.155 23.188C127.155 30.228 132.787 35.112 140.003 35.112C147.219 35.112 152.851 30.228 152.851 23.188C152.851 16.148 147.219 11.264 140.003 11.264ZM140.003 34.892C136.571 34.892 136.131 29.92 136.131 23.188C136.131 16.896 136.571 11.484 140.003 11.484C143.435 11.484 143.875 16.896 143.875 23.188C143.875 29.92 143.435 34.892 140.003 34.892Z" fill="#373737"/>
<path d="M180.463 18.392C180.463 13.552 177.735 11.308 173.907 11.308C170.387 11.308 166.603 12.848 165.591 18.48V18.436L165.723 11.352L153.975 12.056V12.276L157.495 12.1V34.54H154.063V34.76H168.187V34.54H165.635V19.184C166.383 14.872 168.363 12.892 170.211 12.892C172.279 12.892 172.279 14.96 172.279 16.192V34.584H169.771V34.804H183.895V34.584H180.463V18.392Z" fill="#373737"/>
<path d="M202.935 35.112C207.511 35.112 209.315 33.132 209.315 29.084H209.095C209.095 30.536 208.831 33.132 206.851 33.132C205.047 33.132 204.783 31.372 204.783 28.38V11.836H209.315V11.616H204.783V2.86H204.563C204.387 5.06 203.683 8.052 202.539 9.724C200.691 11.088 197.831 11.616 194.443 11.616H193.431V11.836H196.643V28.82C196.643 33.264 198.975 35.112 202.935 35.112Z" fill="#373737"/>
<path d="M222.89 11.264C215.674 11.264 210.042 16.148 210.042 23.188C210.042 30.228 215.674 35.112 222.89 35.112C230.106 35.112 235.738 30.228 235.738 23.188C235.738 16.148 230.106 11.264 222.89 11.264ZM222.89 34.892C219.458 34.892 219.018 29.92 219.018 23.188C219.018 16.896 219.458 11.484 222.89 11.484C226.322 11.484 226.762 16.896 226.762 23.188C226.762 29.92 226.322 34.892 222.89 34.892Z" fill="#373737"/>
</svg>
