<svg width="340" height="389" viewBox="0 0 340 389" fill="none" xmlns="http://www.w3.org/2000/svg">
<path d="M292.481 373.2C343.604 343.633 350.942 309.816 324.739 264.509L322.281 265.931C331.68 282.182 345.535 312.943 323.414 325.737C303.259 337.393 288.917 319.4 269.55 285.913L162.459 100.746L213.092 71.4629L211.668 69.0006L161.035 98.2835L104.357 0.283015L101.899 1.70451C114.174 27.465 125.676 65.5013 123.718 91.6068C111.901 118.814 83.3666 143.203 45.5153 165.094L0.10707 190.038L1.53114 192.5L71.5181 153.341L181.457 343.433C210.223 393.172 248.239 398.788 292.481 373.2Z" fill="black"/>
</svg>
