<?xml version="1.0" encoding="UTF-8" standalone="no"?>
<svg
   xmlns:dc="http://purl.org/dc/elements/1.1/"
   xmlns:cc="http://creativecommons.org/ns#"
   xmlns:rdf="http://www.w3.org/1999/02/22-rdf-syntax-ns#"
   xmlns:svg="http://www.w3.org/2000/svg"
   xmlns="http://www.w3.org/2000/svg"
   xmlns:sodipodi="http://sodipodi.sourceforge.net/DTD/sodipodi-0.dtd"
   xmlns:inkscape="http://www.inkscape.org/namespaces/inkscape"
   width="282"
   height="235"
   viewbox="0 0 282 235"
   fill="none"
   version="1.1"
   id="svg4"
   sodipodi:docname="wrench.svg"
   inkscape:version="0.92.5 (2060ec1f9f, 2020-04-08)">
  <metadata
     id="metadata10">
    <rdf:RDF>
      <cc:Work
         rdf:about="">
        <dc:format>image/svg+xml</dc:format>
        <dc:type
           rdf:resource="http://purl.org/dc/dcmitype/StillImage" />
      </cc:Work>
    </rdf:RDF>
  </metadata>
  <defs
     id="defs8" />
  <sodipodi:namedview
     pagecolor="#ffffff"
     bordercolor="#666666"
     borderopacity="1"
     objecttolerance="10"
     gridtolerance="10"
     guidetolerance="10"
     inkscape:pageopacity="0"
     inkscape:pageshadow="2"
     inkscape:window-width="1920"
     inkscape:window-height="1043"
     id="namedview6"
     showgrid="false"
     inkscape:zoom="1.0042553"
     inkscape:cx="29.972458"
     inkscape:cy="117.5"
     inkscape:window-x="1920"
     inkscape:window-y="0"
     inkscape:window-maximized="1"
     inkscape:current-layer="svg4" />
  <path
     style="fill:#b1df5d"
     d="m 280.77177,177.43924 -66.535,-38.414 c 1.69,-14.17 -5.327,-30.122 -19.59,-37.274 -14.605,-8.432613 -31.929,-6.534113 -44.292,3.637 l 30.833,17.802 -13.117,22.719 -32.456,-18.739 c -2.627,15.794 4.391,31.746 19.339,41.458 14.605,8.432 30.649,6.877 42.076,-1.672 l 66.534,38.413 c 3.246,1.874 7.085,0.845 7.679,-2.057 l 9.369,-16.228 c 2.811,-4.869 1.782,-8.708 0.16,-9.645 z"
     id="services-wrench"
     inkscape:connector-curvature="0" />
  <path
     style="fill:#b1df5d"
     d="m 19.208962,66.455037 c -7.5445,-28.156795 9.32,-57.366895 37.4767,-64.911495 28.1567,-7.54457 57.367108,9.3199 64.911108,37.4766 7.545,28.156795 -9.32,57.366895 -37.476308,64.911108 -28.1567,7.545 -57.3669,-9.319513 -64.9115,-37.476213 z"
     id="path834" />
  <path
     style="fill:#b1df5d"
     d="m 149.95077,196.03125 -140.783648,37.723 -6.8587,-25.597 c -7.54457,-28.156 32.35724,-63.539 88.67074,-78.629 6.3993,-1.714 11.518608,-3.086 18.260608,-3.521 -1.782,8.708 -1.004,16.73 1.397,25.689 5.487,20.478 20.869,36.932 39.314,44.335 z"
     id="path2-3" />
</svg>
