<svg width="282" height="235" viewbox="0 0 282 235" fill="none" xmlns="http://www.w3.org/2000/svg">
<path xmlns="http://www.w3.org/2000/svg" d="M279.776 178.435L213.241 140.021C214.931 125.851 207.914 109.899 193.651 102.747C179.046 94.3144 161.722 96.2129 149.359 106.384L180.192 124.186L167.075 146.905L134.619 128.166C131.992 143.96 139.01 159.912 153.958 169.624C168.563 178.056 184.607 176.501 196.034 167.952L262.568 206.365C265.814 208.239 269.653 207.21 270.247 204.308L279.616 188.08C282.427 183.211 281.398 179.372 279.776 178.435ZM18.2132 67.4508C10.6687 39.294 27.5332 10.0839 55.6899 2.5393C83.8466 -5.00527 113.057 11.8592 120.601 40.0159C128.146 68.1727 111.281 97.3828 83.1247 104.927C54.968 112.472 25.7578 95.6075 18.2132 67.4508ZM148.955 197.027L8.17136 234.75L1.31266 209.153C-6.23191 180.997 33.6699 145.614 89.9834 130.524C96.3827 128.81 101.502 127.438 108.244 127.003C106.462 135.711 107.24 143.733 109.641 152.692C115.128 173.17 130.51 189.624 148.955 197.027Z" fill="#B1DF5D"/>
</svg>
