<svg width="98" height="84" viewBox="0 0 98 84" fill="none" xmlns="http://www.w3.org/2000/svg">
<g id="cloud1">
<g id="cloud-outline" clip-path="url(#clip0_311_581)">
<path id="Vector" d="M59.5729 56.4375H18.8125C15.4862 56.4375 12.2962 55.1161 9.9442 52.7641C7.59218 50.4121 6.27083 47.2221 6.27083 43.8958C6.27083 40.5696 7.59218 37.3796 9.9442 35.0275C12.2962 32.6755 15.4862 31.3542 18.8125 31.3542H21.0386C23.108 24.1114 29.7865 18.8125 37.625 18.8125C42.1986 18.8125 46.5849 20.6294 49.8189 23.8634C53.0529 27.0974 54.8698 31.4837 54.8698 36.0573V37.625H59.5729C62.0676 37.625 64.4601 38.616 66.2241 40.38C67.9882 42.144 68.9792 44.5366 68.9792 47.0312C68.9792 49.5259 67.9882 51.9185 66.2241 53.6825C64.4601 55.4465 62.0676 56.4375 59.5729 56.4375ZM60.6703 31.4482C58.5382 20.6624 49.0379 12.5417 37.625 12.5417C28.5636 12.5417 20.6938 17.6837 16.7745 25.1774C7.33687 26.2121 0 34.176 0 43.8958C0 48.8852 1.98203 53.6703 5.51005 57.1983C9.03808 60.7263 13.8231 62.7083 18.8125 62.7083H59.5729C61.6317 62.7083 63.6702 62.3028 65.5723 61.515C67.4743 60.7271 69.2025 59.5724 70.6583 58.1166C72.114 56.6609 73.2688 54.9326 74.0567 53.0306C74.8445 51.1286 75.25 49.09 75.25 47.0312C75.25 38.7537 68.8224 32.044 60.6703 31.4482Z" fill="#FFE108"/>
</g>
<g id="ruler-square">
<path id="Vector_2" d="M92.8594 75.4323L92.8594 48.0156L82.5781 48.0156L82.5781 50.5859L86.0052 50.5859L86.0052 53.1563L82.5781 53.1563L82.5781 55.7266L89.4323 55.7266L89.4323 58.2969L82.5781 58.2969L82.5781 60.8672L86.0052 60.8672L86.0052 63.4375L82.5781 63.4375L82.5781 66.0078L89.4323 66.0078L89.4323 68.5781L82.5781 68.5781L82.5781 75.4323L80.0078 75.4323L80.0078 68.5781L77.4375 68.5781L77.4375 72.0052L74.8672 72.0052L74.8672 68.5781L72.2969 68.5781L72.2969 75.4323L69.7266 75.4323L69.7266 68.5781L67.1562 68.5781L67.1562 72.0052L64.5859 72.0052L64.5859 68.5781L62.0156 68.5781L62.0156 78.8594L89.4323 78.8594C90.3412 78.8594 91.2129 78.4983 91.8556 77.8556C92.4983 77.2129 92.8594 76.3412 92.8594 75.4323V75.4323ZM87.7188 72.0052C88.1732 72.0052 88.6091 72.1857 88.9304 72.5071C89.2518 72.8284 89.4323 73.2643 89.4323 73.7188C89.4323 74.1732 89.2518 74.6091 88.9304 74.9304C88.6091 75.2518 88.1732 75.4323 87.7187 75.4323C87.2643 75.4323 86.8284 75.2518 86.5071 74.9304C86.1857 74.6091 86.0052 74.1732 86.0052 73.7187C86.0052 73.2643 86.1857 72.8284 86.5071 72.5071C86.8284 72.1857 87.2643 72.0052 87.7188 72.0052Z" fill="#FFE108"/>
</g>
</g>
<defs>
<clipPath id="clip0_311_581">
<rect width="75.25" height="75.25" fill="white"/>
</clipPath>
</defs>
</svg>
