<svg width="84" height="84" viewBox="0 0 84 84" fill="none" xmlns="http://www.w3.org/2000/svg">
<g id="cloud3">
<g id="Group 3">
<path id="Vector" d="M49 7H21C17.115 7 14 10.15 14 14V70C14 73.885 17.115 77 21 77H63C66.885 77 70 73.885 70 70V28L49 7ZM63 70H21V14H45.5V31.5H63V70ZM59.5 59.22C59.5 63.245 56.245 66.5 52.22 66.5H33.25C28.42 66.5 24.5 62.58 24.5 57.75C24.5 53.235 28 49.525 32.305 49C34.125 45.5 37.765 43.155 42 43.155C47.25 43.155 51.73 46.97 52.745 51.905C56.49 52.255 59.5 55.37 59.5 59.22Z" fill="#FFE108"/>
</g>
</g>
</svg>
