<svg width="116" height="91" viewBox="0 0 116 91" fill="none" xmlns="http://www.w3.org/2000/svg">
<g id="development2">
<g id="Frame 10">
<g id="Group 30">
<mask id="mask0_311_571" style="mask-type:alpha" maskUnits="userSpaceOnUse" x="25" y="0" width="91" height="91">
<rect id="Rectangle 10" x="25" width="91" height="91" fill="#9289FF"/>
</mask>
<g mask="url(#mask0_311_571)">
<line id="Line 38" y1="-0.5" x2="136.268" y2="-0.5" transform="matrix(0.646593 -0.762835 0.646593 0.762835 12.7 91.95)" stroke="#9289FF"/>
<line id="Line 39" y1="-0.5" x2="136.268" y2="-0.5" transform="matrix(0.646593 -0.762835 0.646593 0.762835 65.17 91.95)" stroke="#9289FF"/>
<line id="Line 40" y1="-0.5" x2="136.268" y2="-0.5" transform="matrix(0.646593 -0.762835 0.646593 0.762835 42.4 91.95)" stroke="#9289FF"/>
<line id="Line 43" y1="-0.5" x2="136.268" y2="-0.5" transform="matrix(0.646593 -0.762835 0.646593 0.762835 27.55 91.95)" stroke="#9289FF"/>
<line id="Line 44" y1="-0.5" x2="136.268" y2="-0.5" transform="matrix(0.646593 -0.762835 0.646593 0.762835 80.02 91.95)" stroke="#9289FF"/>
<line id="Line 45" y1="-0.5" x2="136.268" y2="-0.5" transform="matrix(0.646593 -0.762835 0.646593 0.762835 57.25 91.95)" stroke="#9289FF"/>
<line id="Line 46" y1="-0.5" x2="136.268" y2="-0.5" transform="matrix(0.646593 -0.762835 0.646593 0.762835 -2.15002 91.95)" stroke="#9289FF"/>
<line id="Line 47" y1="-0.5" x2="136.268" y2="-0.5" transform="matrix(0.646593 -0.762835 0.646593 0.762835 20.62 91.95)" stroke="#9289FF"/>
<line id="Line 48" y1="-0.5" x2="136.268" y2="-0.5" transform="matrix(0.646593 -0.762835 0.646593 0.762835 73.09 91.95)" stroke="#9289FF"/>
<line id="Line 49" y1="-0.5" x2="136.268" y2="-0.5" transform="matrix(0.646593 -0.762835 0.646593 0.762835 50.32 91.95)" stroke="#9289FF"/>
<line id="Line 50" y1="-0.5" x2="136.268" y2="-0.5" transform="matrix(0.646593 -0.762835 0.646593 0.762835 -9.08002 91.95)" stroke="#9289FF"/>
<line id="Line 52" y1="-0.5" x2="136.268" y2="-0.5" transform="matrix(0.646593 -0.762835 0.646593 0.762835 35.47 91.95)" stroke="#9289FF"/>
<line id="Line 54" y1="-0.5" x2="136.268" y2="-0.5" transform="matrix(0.646593 -0.762835 0.646593 0.762835 65.17 91.95)" stroke="#9289FF"/>
<line id="Line 55" y1="-0.5" x2="136.268" y2="-0.5" transform="matrix(0.646593 -0.762835 0.646593 0.762835 5.77002 91.95)" stroke="#9289FF"/>
</g>
</g>
</g>
<rect id="Rectangle 14" x="1.5" y="13.5" width="35" height="60" rx="3.5" stroke="#FFE108" stroke-width="3"/>
<g id="Frame 11">
<g id="Vector">
<path d="M17.6477 42.3L23.6136 36L26 38.52L22.4205 42.3L26 46.08L23.6136 48.6L17.6477 42.3Z" fill="#9289FF"/>
<path d="M11 43.92L13.3864 41.4L19.3523 47.7L13.3864 54L11 51.48L14.5795 47.7L11 43.92Z" fill="#9289FF"/>
</g>
</g>
</g>
</svg>
