<svg width="174" height="123" viewBox="0 0 174 123" fill="none" xmlns="http://www.w3.org/2000/svg">
<g id="development3">
<g id="Frame 8">
<g id="Group 32">
<mask id="mask0_311_572" style="mask-type:alpha" maskUnits="userSpaceOnUse" x="30" y="8" width="93" height="107">
<path id="Polygon 4" d="M123 61.5L30.75 114.761L30.75 8.23944L123 61.5Z" fill="#FFE108"/>
</mask>
<g mask="url(#mask0_311_572)">
<g id="Group 31">
<line id="Line 23" y1="-0.5" x2="136.268" y2="-0.5" transform="matrix(0.646593 -0.762835 0.646593 0.762835 -12.3 104.95)" stroke="#FFE108"/>
<line id="Line 24" y1="-0.5" x2="136.268" y2="-0.5" transform="matrix(0.646593 -0.762835 0.646593 0.762835 40.17 104.95)" stroke="#FFE108"/>
<line id="Line 25" y1="-0.5" x2="136.268" y2="-0.5" transform="matrix(0.646593 -0.762835 0.646593 0.762835 17.4 104.95)" stroke="#FFE108"/>
<line id="Line 16" y1="-0.5" x2="136.268" y2="-0.5" transform="matrix(0.646593 -0.762835 0.646593 0.762835 -42 104.95)" stroke="#FFE108"/>
<line id="Line 26" y1="-0.5" x2="136.268" y2="-0.5" transform="matrix(0.646593 -0.762835 0.646593 0.762835 69.87 104.95)" stroke="#FFE108"/>
<line id="Line 27" y1="-0.5" x2="136.268" y2="-0.5" transform="matrix(0.646593 -0.762835 0.646593 0.762835 2.54999 104.95)" stroke="#FFE108"/>
<line id="Line 28" y1="-0.5" x2="136.268" y2="-0.5" transform="matrix(0.646593 -0.762835 0.646593 0.762835 55.02 104.95)" stroke="#FFE108"/>
<line id="Line 29" y1="-0.5" x2="136.268" y2="-0.5" transform="matrix(0.646593 -0.762835 0.646593 0.762835 32.25 104.95)" stroke="#FFE108"/>
<line id="Line 18" y1="-0.5" x2="136.268" y2="-0.5" transform="matrix(0.646593 -0.762835 0.646593 0.762835 -27.15 104.95)" stroke="#FFE108"/>
<line id="Line 31" y1="-0.5" x2="136.268" y2="-0.5" transform="matrix(0.646593 -0.762835 0.646593 0.762835 -4.38 104.95)" stroke="#FFE108"/>
<line id="Line 32" y1="-0.5" x2="136.268" y2="-0.5" transform="matrix(0.646593 -0.762835 0.646593 0.762835 48.09 104.95)" stroke="#FFE108"/>
<line id="Line 33" y1="-0.5" x2="136.268" y2="-0.5" transform="matrix(0.646593 -0.762835 0.646593 0.762835 25.32 104.95)" stroke="#FFE108"/>
<line id="Line 20" y1="-0.5" x2="136.268" y2="-0.5" transform="matrix(0.646593 -0.762835 0.646593 0.762835 -34.08 104.95)" stroke="#FFE108"/>
<line id="Line 34" y1="-0.5" x2="136.268" y2="-0.5" transform="matrix(0.646593 -0.762835 0.646593 0.762835 77.79 104.95)" stroke="#FFE108"/>
<line id="Line 35" y1="-0.5" x2="136.268" y2="-0.5" transform="matrix(0.646593 -0.762835 0.646593 0.762835 10.47 104.95)" stroke="#FFE108"/>
<line id="Line 36" y1="-0.5" x2="136.268" y2="-0.5" transform="matrix(0.646593 -0.762835 0.646593 0.762835 62.94 104.95)" stroke="#FFE108"/>
<line id="Line 37" y1="-0.5" x2="136.268" y2="-0.5" transform="matrix(0.646593 -0.762835 0.646593 0.762835 40.17 104.95)" stroke="#FFE108"/>
<line id="Line 22" y1="-0.5" x2="136.268" y2="-0.5" transform="matrix(0.646593 -0.762835 0.646593 0.762835 -19.23 104.95)" stroke="#FFE108"/>
</g>
</g>
</g>
</g>
<g id="compare-horizontal">
<path id="Vector" d="M146.5 93.6667H133.667V97.3333H146.5V102.833L153.833 95.5L146.5 88.1667V93.6667ZM157.5 91.8333V86.3333H170.333V82.6667H157.5V77.1667L150.167 84.5L157.5 91.8333Z" fill="#FFE108"/>
</g>
<g id="folder-zip-outline">
<path id="Vector_2" d="M138.667 45H116L110.333 39.3333H93.3333C90.2167 39.3333 87.6667 41.8833 87.6667 45V79C87.6667 82.1167 90.2167 84.6667 93.3333 84.6667H138.667C141.783 84.6667 144.333 82.1167 144.333 79V50.6667C144.333 47.55 141.783 45 138.667 45ZM138.667 79H127.333V73.3333H121.667V79H93.3333V50.6667H121.667V56.3333H127.333V50.6667H138.667V79ZM127.333 62V56.3333H133V62H127.333ZM121.667 62H127.333V67.6667H121.667V62ZM133 73.3333H127.333V67.6667H133V73.3333Z" fill="#9289FF"/>
</g>
</g>
</svg>
