<svg width="74" height="74" viewBox="0 0 74 74" fill="none" xmlns="http://www.w3.org/2000/svg">
<g id="development1" clip-path="url(#clip0_311_561)">
<g id="Group 34">
<g id="Frame 7">
<g id="Group 33">
<mask id="mask0_311_561" style="mask-type:alpha" maskUnits="userSpaceOnUse" x="-49" y="-43" width="99" height="99">
<circle id="Ellipse 1" cx="0.499997" cy="6.5" r="49.5" fill="#C4C4C4"/>
</mask>
<g mask="url(#mask0_311_561)">
<line id="Line 23" y1="-0.5" x2="136.268" y2="-0.5" transform="matrix(0.646593 -0.762835 0.646593 0.762835 -73.75 60.9501)" stroke="#FFE108"/>
<line id="Line 24" y1="-0.5" x2="136.268" y2="-0.5" transform="matrix(0.646593 -0.762835 0.646593 0.762835 -21.28 60.9501)" stroke="#FFE108"/>
<line id="Line 25" y1="-0.5" x2="136.268" y2="-0.5" transform="matrix(0.646593 -0.762835 0.646593 0.762835 -44.05 60.9501)" stroke="#FFE108"/>
<line id="Line 26" y1="-0.5" x2="136.268" y2="-0.5" transform="matrix(0.646593 -0.762835 0.646593 0.762835 8.42 60.9501)" stroke="#FFE108"/>
<line id="Line 27" y1="-0.5" x2="136.268" y2="-0.5" transform="matrix(0.646593 -0.762835 0.646593 0.762835 -58.9 60.9501)" stroke="#FFE108"/>
<line id="Line 28" y1="-0.5" x2="136.268" y2="-0.5" transform="matrix(0.646593 -0.762835 0.646593 0.762835 -6.42999 60.9501)" stroke="#FFE108"/>
<line id="Line 29" y1="-0.5" x2="136.268" y2="-0.5" transform="matrix(0.646593 -0.762835 0.646593 0.762835 -29.2 60.9501)" stroke="#FFE108"/>
<line id="Line 31" y1="-0.5" x2="136.268" y2="-0.5" transform="matrix(0.646593 -0.762835 0.646593 0.762835 -65.83 60.9501)" stroke="#FFE108"/>
<line id="Line 32" y1="-0.5" x2="136.268" y2="-0.5" transform="matrix(0.646593 -0.762835 0.646593 0.762835 -13.36 60.9501)" stroke="#FFE108"/>
<line id="Line 33" y1="-0.5" x2="136.268" y2="-0.5" transform="matrix(0.646593 -0.762835 0.646593 0.762835 -36.13 60.9501)" stroke="#FFE108"/>
<line id="Line 34" y1="-0.5" x2="136.268" y2="-0.5" transform="matrix(0.646593 -0.762835 0.646593 0.762835 16.34 60.9501)" stroke="#FFE108"/>
<line id="Line 35" y1="-0.5" x2="136.268" y2="-0.5" transform="matrix(0.646593 -0.762835 0.646593 0.762835 -50.98 60.9501)" stroke="#FFE108"/>
<line id="Line 36" y1="-0.5" x2="136.268" y2="-0.5" transform="matrix(0.646593 -0.762835 0.646593 0.762835 1.49001 60.9501)" stroke="#FFE108"/>
<line id="Line 37" y1="-0.5" x2="136.268" y2="-0.5" transform="matrix(0.646593 -0.762835 0.646593 0.762835 -21.28 60.9501)" stroke="#FFE108"/>
<line id="Line 22" y1="-0.5" x2="136.268" y2="-0.5" transform="matrix(0.646593 -0.762835 0.646593 0.762835 -80.68 60.9501)" stroke="#FFE108"/>
</g>
</g>
</g>
<path id="Vector" d="M9.24999 6.16666C7.61449 6.16666 6.04598 6.81636 4.8895 7.97284C3.73303 9.12931 3.08333 10.6978 3.08333 12.3333V49.3333C3.08333 52.7558 5.85833 55.5 9.24999 55.5H30.8333V61.6667H24.6667V67.8333H49.3333V61.6667H43.1667V55.5H64.75C66.3855 55.5 67.954 54.8503 69.1105 53.6938C70.267 52.5373 70.9167 50.9688 70.9167 49.3333V12.3333C70.9167 10.6978 70.267 9.12931 69.1105 7.97284C67.954 6.81636 66.3855 6.16666 64.75 6.16666H9.24999ZM9.24999 12.3333H64.75V49.3333H9.24999V12.3333ZM46.25 15.4167L35.4583 26.2083L46.25 37L50.5667 32.6833L44.0917 26.2083L50.5667 19.7333L46.25 15.4167ZM27.75 24.6667L23.4333 28.9833L29.9083 35.4583L23.4333 41.9333L27.75 46.25L38.5417 35.4583" fill="#9289FF"/>
</g>
</g>
<defs>
<clipPath id="clip0_311_561">
<rect width="74" height="74" fill="white"/>
</clipPath>
</defs>
</svg>
