<svg width="124" height="123" viewBox="0 0 124 123" fill="none" xmlns="http://www.w3.org/2000/svg">
<g id="automation3">
<g id="Frame 12">
<g id="Group 32">
<mask id="mask0_313_652" style="mask-type:alpha" maskUnits="userSpaceOnUse" x="31" y="8" width="93" height="107">
<path id="Polygon 4" d="M124 61.5L31.75 114.761L31.75 8.23944L124 61.5Z" fill="#FFE108"/>
</mask>
<g mask="url(#mask0_313_652)">
<g id="Group 31">
<line id="Line 23" y1="-0.5" x2="136.268" y2="-0.5" transform="matrix(0.646593 -0.762835 0.646593 0.762835 -11.3 104.95)" stroke="#FFE108"/>
<line id="Line 24" y1="-0.5" x2="136.268" y2="-0.5" transform="matrix(0.646593 -0.762835 0.646593 0.762835 41.17 104.95)" stroke="#FFE108"/>
<line id="Line 25" y1="-0.5" x2="136.268" y2="-0.5" transform="matrix(0.646593 -0.762835 0.646593 0.762835 18.4 104.95)" stroke="#FFE108"/>
<line id="Line 16" y1="-0.5" x2="136.268" y2="-0.5" transform="matrix(0.646593 -0.762835 0.646593 0.762835 -41 104.95)" stroke="#FFE108"/>
<line id="Line 26" y1="-0.5" x2="136.268" y2="-0.5" transform="matrix(0.646593 -0.762835 0.646593 0.762835 70.87 104.95)" stroke="#FFE108"/>
<line id="Line 27" y1="-0.5" x2="136.268" y2="-0.5" transform="matrix(0.646593 -0.762835 0.646593 0.762835 3.54999 104.95)" stroke="#FFE108"/>
<line id="Line 28" y1="-0.5" x2="136.268" y2="-0.5" transform="matrix(0.646593 -0.762835 0.646593 0.762835 56.02 104.95)" stroke="#FFE108"/>
<line id="Line 29" y1="-0.5" x2="136.268" y2="-0.5" transform="matrix(0.646593 -0.762835 0.646593 0.762835 33.25 104.95)" stroke="#FFE108"/>
<line id="Line 18" y1="-0.5" x2="136.268" y2="-0.5" transform="matrix(0.646593 -0.762835 0.646593 0.762835 -26.15 104.95)" stroke="#FFE108"/>
<line id="Line 31" y1="-0.5" x2="136.268" y2="-0.5" transform="matrix(0.646593 -0.762835 0.646593 0.762835 -3.38 104.95)" stroke="#FFE108"/>
<line id="Line 32" y1="-0.5" x2="136.268" y2="-0.5" transform="matrix(0.646593 -0.762835 0.646593 0.762835 49.09 104.95)" stroke="#FFE108"/>
<line id="Line 33" y1="-0.5" x2="136.268" y2="-0.5" transform="matrix(0.646593 -0.762835 0.646593 0.762835 26.32 104.95)" stroke="#FFE108"/>
<line id="Line 20" y1="-0.5" x2="136.268" y2="-0.5" transform="matrix(0.646593 -0.762835 0.646593 0.762835 -33.08 104.95)" stroke="#FFE108"/>
<line id="Line 34" y1="-0.5" x2="136.268" y2="-0.5" transform="matrix(0.646593 -0.762835 0.646593 0.762835 78.79 104.95)" stroke="#FFE108"/>
<line id="Line 35" y1="-0.5" x2="136.268" y2="-0.5" transform="matrix(0.646593 -0.762835 0.646593 0.762835 11.47 104.95)" stroke="#FFE108"/>
<line id="Line 36" y1="-0.5" x2="136.268" y2="-0.5" transform="matrix(0.646593 -0.762835 0.646593 0.762835 63.94 104.95)" stroke="#FFE108"/>
<line id="Line 37" y1="-0.5" x2="136.268" y2="-0.5" transform="matrix(0.646593 -0.762835 0.646593 0.762835 41.17 104.95)" stroke="#FFE108"/>
<line id="Line 22" y1="-0.5" x2="136.268" y2="-0.5" transform="matrix(0.646593 -0.762835 0.646593 0.762835 -18.23 104.95)" stroke="#FFE108"/>
</g>
</g>
</g>
</g>
<g id="pipe">
<path id="Vector" d="M78.8334 87.1667H71.6667V94.3333H50.1667V83.5833H57.3334V76.4167H50.1667V58.5C50.1667 56.5993 49.4116 54.7764 48.0676 53.4324C46.7236 52.0884 44.9007 51.3333 43 51.3333H14.3334V44.1667H7.16669V72.8333H14.3334V65.6667H35.8334V76.4167H28.6667V83.5833H35.8334V101.5C35.8334 103.401 36.5884 105.224 37.9324 106.568C39.2764 107.912 41.0993 108.667 43 108.667H71.6667V115.833H78.8334" fill="#9289FF"/>
</g>
</g>
</svg>
