<svg width="140" height="95" viewBox="0 0 140 95" fill="none" xmlns="http://www.w3.org/2000/svg">
<g id="automation2">
<g id="Frame 10">
<g id="Group 30">
<mask id="mask0_313_651" style="mask-type:alpha" maskUnits="userSpaceOnUse" x="49" y="1" width="91" height="91">
<rect id="Rectangle 10" x="49" y="1" width="91" height="91" fill="#9289FF"/>
</mask>
<g mask="url(#mask0_313_651)">
<line id="Line 38" y1="-0.5" x2="138.462" y2="-0.5" transform="matrix(0.636347 -0.771403 0.636347 0.771403 36.7 95.48)" stroke="#9289FF"/>
<line id="Line 39" y1="-0.5" x2="138.462" y2="-0.5" transform="matrix(0.636347 -0.771403 0.636347 0.771403 89.17 95.48)" stroke="#9289FF"/>
<line id="Line 40" y1="-0.5" x2="138.462" y2="-0.5" transform="matrix(0.636347 -0.771403 0.636347 0.771403 66.4 95.48)" stroke="#9289FF"/>
<line id="Line 43" y1="-0.5" x2="138.462" y2="-0.5" transform="matrix(0.636347 -0.771403 0.636347 0.771403 51.55 95.48)" stroke="#9289FF"/>
<line id="Line 44" y1="-0.5" x2="138.462" y2="-0.5" transform="matrix(0.636347 -0.771403 0.636347 0.771403 104.02 95.48)" stroke="#9289FF"/>
<line id="Line 45" y1="-0.5" x2="138.462" y2="-0.5" transform="matrix(0.636347 -0.771403 0.636347 0.771403 81.25 95.48)" stroke="#9289FF"/>
<line id="Line 46" y1="-0.5" x2="138.462" y2="-0.5" transform="matrix(0.636347 -0.771403 0.636347 0.771403 21.85 95.48)" stroke="#9289FF"/>
<line id="Line 47" y1="-0.5" x2="138.462" y2="-0.5" transform="matrix(0.636347 -0.771403 0.636347 0.771403 44.62 95.48)" stroke="#9289FF"/>
<line id="Line 48" y1="-0.5" x2="138.462" y2="-0.5" transform="matrix(0.636347 -0.771403 0.636347 0.771403 97.09 95.48)" stroke="#9289FF"/>
<line id="Line 49" y1="-0.5" x2="138.462" y2="-0.5" transform="matrix(0.636347 -0.771403 0.636347 0.771403 74.32 95.48)" stroke="#9289FF"/>
<line id="Line 50" y1="-0.5" x2="138.462" y2="-0.5" transform="matrix(0.636347 -0.771403 0.636347 0.771403 14.92 95.48)" stroke="#9289FF"/>
<line id="Line 52" y1="-0.5" x2="138.462" y2="-0.5" transform="matrix(0.636347 -0.771403 0.636347 0.771403 59.47 95.48)" stroke="#9289FF"/>
<line id="Line 54" y1="-0.5" x2="138.462" y2="-0.5" transform="matrix(0.636347 -0.771403 0.636347 0.771403 89.17 95.48)" stroke="#9289FF"/>
<line id="Line 55" y1="-0.5" x2="138.462" y2="-0.5" transform="matrix(0.636347 -0.771403 0.636347 0.771403 29.77 95.48)" stroke="#9289FF"/>
</g>
</g>
</g>
<g id="robot-excited-outline">
<path id="Vector" d="M87.0833 55.4167H83.125C83.125 40.0979 70.7354 27.7083 55.4167 27.7083H51.4583V22.6813C53.8333 21.3354 55.4167 18.7625 55.4167 15.8333C55.4167 11.4792 51.8937 7.91667 47.5 7.91667C43.1062 7.91667 39.5833 11.4792 39.5833 15.8333C39.5833 18.7625 41.1667 21.3354 43.5417 22.6813V27.7083H39.5833C24.2646 27.7083 11.875 40.0979 11.875 55.4167H7.91666C5.73958 55.4167 3.95833 57.1979 3.95833 59.375V71.25C3.95833 73.4271 5.73958 75.2083 7.91666 75.2083H11.875V79.1667C11.875 83.5604 15.4375 87.0833 19.7917 87.0833H75.2083C79.6021 87.0833 83.125 83.5604 83.125 79.1667V75.2083H87.0833C89.2604 75.2083 91.0417 73.4271 91.0417 71.25V59.375C91.0417 57.1979 89.2604 55.4167 87.0833 55.4167ZM83.125 67.2917H75.2083V79.1667H19.7917V67.2917H11.875V63.3333H19.7917V55.4167C19.7917 44.4917 28.6583 35.625 39.5833 35.625H55.4167C66.3417 35.625 75.2083 44.4917 75.2083 55.4167V63.3333H83.125V67.2917ZM33.6458 53.4375L42.9875 62.7792L38.3167 67.45L33.6458 62.7792L28.975 67.45L24.3042 62.7792L33.6458 53.4375ZM61.3542 53.4375L70.6958 62.7792L66.025 67.45L61.3542 62.7792L56.6833 67.45L52.0125 62.7792L61.3542 53.4375Z" fill="#FFE108"/>
</g>
</g>
</svg>
