<svg width="147" height="120" viewBox="0 0 147 120" fill="none" xmlns="http://www.w3.org/2000/svg">
<g id="automation1">
<g id="Frame 13">
<g id="Group 33">
<mask id="mask0_312_650" style="mask-type:alpha" maskUnits="userSpaceOnUse" x="0" y="0" width="99" height="99">
<circle id="Ellipse 1" cx="49.5" cy="49.5" r="49.5" fill="#C4C4C4"/>
</mask>
<g mask="url(#mask0_312_650)">
<line id="Line 23" y1="-0.5" x2="136.268" y2="-0.5" transform="matrix(0.646593 -0.762835 0.646593 0.762835 -24.75 103.95)" stroke="#FFE108"/>
<line id="Line 24" y1="-0.5" x2="136.268" y2="-0.5" transform="matrix(0.646593 -0.762835 0.646593 0.762835 27.72 103.95)" stroke="#FFE108"/>
<line id="Line 25" y1="-0.5" x2="136.268" y2="-0.5" transform="matrix(0.646593 -0.762835 0.646593 0.762835 4.95 103.95)" stroke="#FFE108"/>
<line id="Line 16" y1="-0.5" x2="136.268" y2="-0.5" transform="matrix(0.646593 -0.762835 0.646593 0.762835 -54.45 103.95)" stroke="#FFE108"/>
<line id="Line 26" y1="-0.5" x2="136.268" y2="-0.5" transform="matrix(0.646593 -0.762835 0.646593 0.762835 57.42 103.95)" stroke="#FFE108"/>
<line id="Line 27" y1="-0.5" x2="136.268" y2="-0.5" transform="matrix(0.646593 -0.762835 0.646593 0.762835 -9.89999 103.95)" stroke="#FFE108"/>
<line id="Line 28" y1="-0.5" x2="136.268" y2="-0.5" transform="matrix(0.646593 -0.762835 0.646593 0.762835 42.57 103.95)" stroke="#FFE108"/>
<line id="Line 29" y1="-0.5" x2="136.268" y2="-0.5" transform="matrix(0.646593 -0.762835 0.646593 0.762835 19.8 103.95)" stroke="#FFE108"/>
<line id="Line 18" y1="-0.5" x2="136.268" y2="-0.5" transform="matrix(0.646593 -0.762835 0.646593 0.762835 -39.6 103.95)" stroke="#FFE108"/>
<line id="Line 31" y1="-0.5" x2="136.268" y2="-0.5" transform="matrix(0.646593 -0.762835 0.646593 0.762835 -16.83 103.95)" stroke="#FFE108"/>
<line id="Line 32" y1="-0.5" x2="136.268" y2="-0.5" transform="matrix(0.646593 -0.762835 0.646593 0.762835 35.64 103.95)" stroke="#FFE108"/>
<line id="Line 33" y1="-0.5" x2="136.268" y2="-0.5" transform="matrix(0.646593 -0.762835 0.646593 0.762835 12.87 103.95)" stroke="#FFE108"/>
<line id="Line 20" y1="-0.5" x2="136.268" y2="-0.5" transform="matrix(0.646593 -0.762835 0.646593 0.762835 -46.53 103.95)" stroke="#FFE108"/>
<line id="Line 34" y1="-0.5" x2="136.268" y2="-0.5" transform="matrix(0.646593 -0.762835 0.646593 0.762835 65.34 103.95)" stroke="#FFE108"/>
<line id="Line 35" y1="-0.5" x2="136.268" y2="-0.5" transform="matrix(0.646593 -0.762835 0.646593 0.762835 -1.98 103.95)" stroke="#FFE108"/>
<line id="Line 36" y1="-0.5" x2="136.268" y2="-0.5" transform="matrix(0.646593 -0.762835 0.646593 0.762835 50.49 103.95)" stroke="#FFE108"/>
<line id="Line 37" y1="-0.5" x2="136.268" y2="-0.5" transform="matrix(0.646593 -0.762835 0.646593 0.762835 27.72 103.95)" stroke="#FFE108"/>
<line id="Line 22" y1="-0.5" x2="136.268" y2="-0.5" transform="matrix(0.646593 -0.762835 0.646593 0.762835 -31.68 103.95)" stroke="#FFE108"/>
</g>
</g>
</g>
<g id="refresh-auto">
<path id="Vector" d="M102.192 48.75H96.8083L79.7083 88.3333H87.625L90.5146 80.4167H108.485L111.375 88.3333H119.292L102.192 48.75ZM92.7708 74.4792L99.5 56.6667L106.229 74.4792H92.7708ZM120.875 105.75L127.208 112.083H107.417V92.2917L115.333 100.208C124.794 94.7063 131.167 84.1771 131.167 72.5C131.167 55.0438 116.956 40.8333 99.5 40.8333C82.0437 40.8333 67.8333 55.0438 67.8333 72.5C67.8333 84.1771 74.2062 94.3896 83.6667 99.8917V108.758C69.6937 102.623 59.9167 88.7292 59.9167 72.5C59.9167 50.7292 77.7292 32.9167 99.5 32.9167C121.271 32.9167 139.083 50.7292 139.083 72.5C139.083 86.4729 131.84 98.7042 120.875 105.75Z" fill="#9289FF"/>
</g>
</g>
</svg>
