<svg width="206" height="123" viewBox="0 0 206 123" fill="none" xmlns="http://www.w3.org/2000/svg">
<g id="Design3">
<g id="Frame 3">
<g id="Group 32">
<mask id="mask0_303_217" style="mask-type:alpha" maskUnits="userSpaceOnUse" x="113" y="8" width="93" height="107">
<path id="Polygon 4" d="M206 61.5L113.75 114.761L113.75 8.23944L206 61.5Z" fill="#FFE108"/>
</mask>
<g mask="url(#mask0_303_217)">
<g id="Group 31">
<line id="Line 23" y1="-0.5" x2="136.268" y2="-0.5" transform="matrix(0.646593 -0.762835 0.646593 0.762835 70.7 104.95)" stroke="#9289FF"/>
<line id="Line 24" y1="-0.5" x2="136.268" y2="-0.5" transform="matrix(0.646593 -0.762835 0.646593 0.762835 123.17 104.95)" stroke="#9289FF"/>
<line id="Line 25" y1="-0.5" x2="136.268" y2="-0.5" transform="matrix(0.646593 -0.762835 0.646593 0.762835 100.4 104.95)" stroke="#9289FF"/>
<line id="Line 16" y1="-0.5" x2="136.268" y2="-0.5" transform="matrix(0.646593 -0.762835 0.646593 0.762835 41 104.95)" stroke="#9289FF"/>
<line id="Line 26" y1="-0.5" x2="136.268" y2="-0.5" transform="matrix(0.646593 -0.762835 0.646593 0.762835 152.87 104.95)" stroke="#9289FF"/>
<line id="Line 27" y1="-0.5" x2="136.268" y2="-0.5" transform="matrix(0.646593 -0.762835 0.646593 0.762835 85.55 104.95)" stroke="#9289FF"/>
<line id="Line 28" y1="-0.5" x2="136.268" y2="-0.5" transform="matrix(0.646593 -0.762835 0.646593 0.762835 138.02 104.95)" stroke="#9289FF"/>
<line id="Line 29" y1="-0.5" x2="136.268" y2="-0.5" transform="matrix(0.646593 -0.762835 0.646593 0.762835 115.25 104.95)" stroke="#9289FF"/>
<line id="Line 18" y1="-0.5" x2="136.268" y2="-0.5" transform="matrix(0.646593 -0.762835 0.646593 0.762835 55.85 104.95)" stroke="#9289FF"/>
<line id="Line 31" y1="-0.5" x2="136.268" y2="-0.5" transform="matrix(0.646593 -0.762835 0.646593 0.762835 78.62 104.95)" stroke="#9289FF"/>
<line id="Line 32" y1="-0.5" x2="136.268" y2="-0.5" transform="matrix(0.646593 -0.762835 0.646593 0.762835 131.09 104.95)" stroke="#9289FF"/>
<line id="Line 33" y1="-0.5" x2="136.268" y2="-0.5" transform="matrix(0.646593 -0.762835 0.646593 0.762835 108.32 104.95)" stroke="#9289FF"/>
<line id="Line 20" y1="-0.5" x2="136.268" y2="-0.5" transform="matrix(0.646593 -0.762835 0.646593 0.762835 48.92 104.95)" stroke="#9289FF"/>
<line id="Line 34" y1="-0.5" x2="136.268" y2="-0.5" transform="matrix(0.646593 -0.762835 0.646593 0.762835 160.79 104.95)" stroke="#9289FF"/>
<line id="Line 35" y1="-0.5" x2="136.268" y2="-0.5" transform="matrix(0.646593 -0.762835 0.646593 0.762835 93.47 104.95)" stroke="#9289FF"/>
<line id="Line 36" y1="-0.5" x2="136.268" y2="-0.5" transform="matrix(0.646593 -0.762835 0.646593 0.762835 145.94 104.95)" stroke="#9289FF"/>
<line id="Line 37" y1="-0.5" x2="136.268" y2="-0.5" transform="matrix(0.646593 -0.762835 0.646593 0.762835 123.17 104.95)" stroke="#9289FF"/>
<line id="Line 22" y1="-0.5" x2="136.268" y2="-0.5" transform="matrix(0.646593 -0.762835 0.646593 0.762835 63.77 104.95)" stroke="#9289FF"/>
</g>
</g>
</g>
</g>
<g id="Asset 4 1" clip-path="url(#clip0_303_217)">
<g id="Layer 2">
<g id="Layer 1">
<path id="Vector (Stroke)" fill-rule="evenodd" clip-rule="evenodd" d="M59.763 16.3841L85.9065 16.194L85.896 14.7319L59.7485 14.922L59.7446 14.922C59.6321 14.9234 59.5203 14.9244 59.4093 14.9254C58.6223 14.9323 57.879 14.9389 57.227 15.0988C56.4115 15.2989 55.7406 15.7289 55.1247 16.5476C54.514 17.3565 54.3098 18.4155 54.2309 19.4804C54.176 20.221 54.1787 21.0524 54.1815 21.8935C54.1827 22.2597 54.1839 22.6278 54.1803 22.9911L54.1802 23.0005L54.54 45.3233L55.9975 45.2997L55.6381 22.9958C55.642 22.5867 55.6407 22.1948 55.6394 21.8184C55.6366 21.0089 55.6341 20.2713 55.6846 19.5888C55.7588 18.5886 55.9408 17.8884 56.287 17.4301L56.288 17.4288C56.7167 16.8588 57.1073 16.6335 57.5733 16.5192C58.0492 16.4024 58.6044 16.3966 59.4283 16.3879C59.5346 16.3867 59.6454 16.3856 59.761 16.3841C59.7617 16.3841 59.7624 16.3841 59.763 16.3841Z" fill="#9289FF"/>
<path id="Vector (Stroke)_2" fill-rule="evenodd" clip-rule="evenodd" d="M142.586 14.376L142.596 14.3761C142.958 14.3797 143.325 14.3785 143.69 14.3772C144.528 14.3745 145.356 14.3718 146.094 14.4268C147.154 14.506 148.209 14.7109 149.015 15.3233C149.831 15.9412 150.26 16.6142 150.459 17.4328C150.619 18.0873 150.625 18.8338 150.632 19.6251C150.633 19.7367 150.634 19.8491 150.636 19.9622L150.636 19.9662L150.825 46.1884L149.368 46.199L149.178 19.9807C149.178 19.98 149.178 19.9793 149.178 19.9786C149.177 19.8624 149.175 19.7511 149.174 19.6442C149.166 18.8158 149.16 18.2579 149.043 17.7798C148.929 17.3119 148.705 16.9201 148.136 16.4902L148.135 16.4892C147.678 16.1419 146.981 15.9593 145.985 15.885C145.306 15.8343 144.571 15.8368 143.765 15.8396C143.39 15.8409 142.999 15.8423 142.592 15.8383L120.351 16.2183L120.326 14.7563L142.586 14.376Z" fill="#9289FF"/>
<path id="Vector (Stroke)_3" fill-rule="evenodd" clip-rule="evenodd" d="M119.041 66.0129L118.662 43.7009L120.12 43.676L120.499 66.0004V66.0067C120.499 66.3081 120.501 66.6116 120.504 66.9139C120.512 67.823 120.519 68.7221 120.457 69.5242C120.375 70.5912 120.163 71.6464 119.554 72.453C118.936 73.2714 118.264 73.7013 117.448 73.9012C116.795 74.0611 116.052 74.0677 115.265 74.0746C115.154 74.0756 115.042 74.0766 114.93 74.078L114.926 74.078L88.7832 74.2681L88.7726 72.806L114.911 72.6159C114.912 72.6159 114.913 72.6159 114.913 72.6159C115.029 72.6144 115.14 72.6133 115.246 72.6121C116.07 72.6034 116.625 72.5976 117.102 72.4808C117.569 72.3663 117.961 72.1406 118.392 71.5699C118.74 71.1093 118.927 70.4074 119.004 69.4114C119.06 68.6772 119.054 67.87 119.046 66.9811C119.044 66.6686 119.041 66.346 119.041 66.0129Z" fill="#9289FF"/>
<path id="Vector (Stroke)_4" fill-rule="evenodd" clip-rule="evenodd" d="M25.2873 42.801L25.4768 69.0242C25.4768 69.0248 25.4768 69.0255 25.4768 69.0262C25.4782 69.1352 25.4793 69.2399 25.4804 69.3407C25.4894 70.1768 25.4955 70.7392 25.6132 71.2207C25.7279 71.6898 25.9535 72.0836 26.5201 72.516C26.977 72.863 27.6749 73.0455 28.6718 73.1199C29.3522 73.1706 30.0876 73.168 30.8946 73.1653C31.2697 73.164 31.6603 73.1626 32.0681 73.1665L54.3038 72.7816L54.3289 74.2436L32.0736 74.6289L32.0637 74.6288C31.7016 74.6252 31.3346 74.6264 30.9695 74.6276C30.1309 74.6304 29.3021 74.6331 28.5637 74.578C27.5018 74.4989 26.4457 74.294 25.6392 73.6811L25.6382 73.6803C24.8252 73.0601 24.3973 72.3866 24.1974 71.569C24.0365 70.9111 24.0297 70.1618 24.0225 69.367C24.0215 69.2597 24.0205 69.1515 24.0192 69.0426L24.0191 69.0387L23.8296 42.8116L25.2873 42.801Z" fill="#9289FF"/>
<path id="Vector" d="M87.7283 80C91.3512 80 94.2882 77.0541 94.2882 73.4201C94.2882 69.7861 91.3512 66.8401 87.7283 66.8401C84.1053 66.8401 81.1684 69.7861 81.1684 73.4201C81.1684 77.0541 84.1053 80 87.7283 80Z" fill="#9289FF"/>
<path id="Vector_2" d="M56.5467 80C60.1697 80 63.1067 77.0541 63.1067 73.4201C63.1067 69.7861 60.1697 66.8401 56.5467 66.8401C52.9238 66.8401 49.9868 69.7861 49.9868 73.4201C49.9868 77.0541 52.9238 80 56.5467 80Z" fill="#9289FF"/>
<path id="Vector (Stroke)_5" fill-rule="evenodd" clip-rule="evenodd" d="M59.6858 72.8059H85.5417V74.2682H59.6858V72.8059Z" fill="#9289FF"/>
<path id="Vector_3" d="M24.5585 52.8321C28.1814 52.8321 31.1184 49.8862 31.1184 46.2522C31.1184 42.6182 28.1814 39.6723 24.5585 39.6723C20.9355 39.6723 17.9985 42.6182 17.9985 46.2522C17.9985 49.8862 20.9355 52.8321 24.5585 52.8321Z" fill="#FFE108"/>
<path id="Vector_4" d="M55.7449 52.8321C59.3679 52.8321 62.3049 49.8862 62.3049 46.2522C62.3049 42.6182 59.3679 39.6723 55.7449 39.6723C52.122 39.6723 49.185 42.6182 49.185 46.2522C49.185 49.8862 52.122 52.8321 55.7449 52.8321Z" fill="#FFE108"/>
<path id="Vector_5" d="M86.9266 52.8321C90.5495 52.8321 93.4865 49.8862 93.4865 46.2522C93.4865 42.6182 90.5495 39.6723 86.9266 39.6723C83.3036 39.6723 80.3666 42.6182 80.3666 46.2522C80.3666 49.8862 83.3036 52.8321 86.9266 52.8321Z" fill="#FFE108"/>
<path id="Vector_6" d="M118.113 52.8321C121.736 52.8321 124.673 49.8862 124.673 46.2522C124.673 42.6182 121.736 39.6723 118.113 39.6723C114.49 39.6723 111.553 42.6182 111.553 46.2522C111.553 49.8862 114.49 52.8321 118.113 52.8321Z" fill="#FFE108"/>
<path id="Vector_7" d="M86.9266 22.1599C90.5495 22.1599 93.4865 19.2139 93.4865 15.5799C93.4865 11.9459 90.5495 9 86.9266 9C83.3036 9 80.3666 11.9459 80.3666 15.5799C80.3666 19.2139 83.3036 22.1599 86.9266 22.1599Z" fill="#9289FF"/>
<path id="Vector_8" d="M118.113 22.1599C121.736 22.1599 124.673 19.2139 124.673 15.5799C124.673 11.9459 121.736 9 118.113 9C114.49 9 111.553 11.9459 111.553 15.5799C111.553 19.2139 114.49 22.1599 118.113 22.1599Z" fill="#9289FF"/>
<path id="Vector_9" d="M149.295 52.8321C152.918 52.8321 155.855 49.8862 155.855 46.2522C155.855 42.6182 152.918 39.6723 149.295 39.6723C145.672 39.6723 142.735 42.6182 142.735 46.2522C142.735 49.8862 145.672 52.8321 149.295 52.8321Z" fill="#FFE108"/>
<path id="Vector (Stroke)_6" fill-rule="evenodd" clip-rule="evenodd" d="M180 46.9833H0V45.5211H180V46.9833Z" fill="#FFE108"/>
<path id="Vector (Stroke)_7" fill-rule="evenodd" clip-rule="evenodd" d="M114.974 16.1941H89.1132V14.7319H114.974V16.1941Z" fill="#9289FF"/>
</g>
</g>
</g>
</g>
<defs>
<clipPath id="clip0_303_217">
<rect width="180" height="71" fill="white" transform="translate(0 9)"/>
</clipPath>
</defs>
</svg>
