<svg width="112" height="112" viewBox="0 0 112 112" fill="none" xmlns="http://www.w3.org/2000/svg">
<g id="Design4">
<g id="Frame 4">
<g id="Group 33">
<mask id="mask0_303_218" style="mask-type:alpha" maskUnits="userSpaceOnUse" x="1" y="8" width="99" height="99">
<circle id="Ellipse 1" cx="50.5" cy="57.5" r="49.5" fill="#C4C4C4"/>
</mask>
<g mask="url(#mask0_303_218)">
<line id="Line 23" y1="-0.5" x2="136.268" y2="-0.5" transform="matrix(0.646593 -0.762835 0.646593 0.762835 -23.75 111.95)" stroke="#FFE108"/>
<line id="Line 24" y1="-0.5" x2="136.268" y2="-0.5" transform="matrix(0.646593 -0.762835 0.646593 0.762835 28.72 111.95)" stroke="#FFE108"/>
<line id="Line 25" y1="-0.5" x2="136.268" y2="-0.5" transform="matrix(0.646593 -0.762835 0.646593 0.762835 5.95001 111.95)" stroke="#FFE108"/>
<line id="Line 16" y1="-0.5" x2="136.268" y2="-0.5" transform="matrix(0.646593 -0.762835 0.646593 0.762835 -53.45 111.95)" stroke="#FFE108"/>
<line id="Line 26" y1="-0.5" x2="136.268" y2="-0.5" transform="matrix(0.646593 -0.762835 0.646593 0.762835 58.42 111.95)" stroke="#FFE108"/>
<line id="Line 27" y1="-0.5" x2="136.268" y2="-0.5" transform="matrix(0.646593 -0.762835 0.646593 0.762835 -8.89999 111.95)" stroke="#FFE108"/>
<line id="Line 28" y1="-0.5" x2="136.268" y2="-0.5" transform="matrix(0.646593 -0.762835 0.646593 0.762835 43.57 111.95)" stroke="#FFE108"/>
<line id="Line 29" y1="-0.5" x2="136.268" y2="-0.5" transform="matrix(0.646593 -0.762835 0.646593 0.762835 20.8 111.95)" stroke="#FFE108"/>
<line id="Line 18" y1="-0.5" x2="136.268" y2="-0.5" transform="matrix(0.646593 -0.762835 0.646593 0.762835 -38.6 111.95)" stroke="#FFE108"/>
<line id="Line 31" y1="-0.5" x2="136.268" y2="-0.5" transform="matrix(0.646593 -0.762835 0.646593 0.762835 -15.83 111.95)" stroke="#FFE108"/>
<line id="Line 32" y1="-0.5" x2="136.268" y2="-0.5" transform="matrix(0.646593 -0.762835 0.646593 0.762835 36.64 111.95)" stroke="#FFE108"/>
<line id="Line 33" y1="-0.5" x2="136.268" y2="-0.5" transform="matrix(0.646593 -0.762835 0.646593 0.762835 13.87 111.95)" stroke="#FFE108"/>
<line id="Line 20" y1="-0.5" x2="136.268" y2="-0.5" transform="matrix(0.646593 -0.762835 0.646593 0.762835 -45.53 111.95)" stroke="#FFE108"/>
<line id="Line 34" y1="-0.5" x2="136.268" y2="-0.5" transform="matrix(0.646593 -0.762835 0.646593 0.762835 66.34 111.95)" stroke="#FFE108"/>
<line id="Line 35" y1="-0.5" x2="136.268" y2="-0.5" transform="matrix(0.646593 -0.762835 0.646593 0.762835 -0.980011 111.95)" stroke="#FFE108"/>
<line id="Line 36" y1="-0.5" x2="136.268" y2="-0.5" transform="matrix(0.646593 -0.762835 0.646593 0.762835 51.49 111.95)" stroke="#FFE108"/>
<line id="Line 37" y1="-0.5" x2="136.268" y2="-0.5" transform="matrix(0.646593 -0.762835 0.646593 0.762835 28.72 111.95)" stroke="#FFE108"/>
<line id="Line 22" y1="-0.5" x2="136.268" y2="-0.5" transform="matrix(0.646593 -0.762835 0.646593 0.762835 -30.68 111.95)" stroke="#FFE108"/>
</g>
</g>
</g>
<g id="pencil-ruler">
<path id="Vector" d="M6.25001 35.9375V43.75H14.0625L37.1042 20.6875L29.2917 12.875L6.25001 35.9375ZM47.1042 38.25L38.25 47.1042L27.4167 36.2708L31.1042 32.5833L33.1875 34.6667L38.3333 29.5L41.2917 32.4583L38.25 35.4167L40.4583 37.5L43.4167 34.5833L47.1042 38.25ZM13.7708 22.5625L2.89584 11.75L11.75 2.89583L15.4167 6.58333L10.2708 11.75L12.5 13.9583L17.625 8.79167L20.5833 11.75L17.625 14.6875L19.7083 16.7708L13.7708 22.5625ZM43.1458 14.5833C43.9583 13.7708 43.9583 12.5 43.1458 11.6458L38.2708 6.85417C37.5 6.04167 36.1458 6.04167 35.3333 6.85417L31.5 10.6667L39.3125 18.4792L43.1458 14.5833Z" fill="#9289FF"/>
</g>
<g id="nuxt" clip-path="url(#clip0_303_218)">
<path id="Vector_2" d="M88.4595 50.6949L97.5891 48.1295C97.6915 48.1409 98.1863 47.9873 98.5276 48.3286C98.6698 48.4708 98.812 48.7268 98.704 49.2444L98.4537 50.3365L101.656 49.4321C101.741 49.4037 102.253 49.2899 102.595 49.6312C102.737 49.7734 102.908 50.0578 102.765 50.5413L99.6482 61.8266C99.6198 61.912 99.4548 62.4182 98.9998 62.532C98.8007 62.6173 98.4878 62.5889 98.1124 62.2134L88.0671 52.1681C88.0102 52.1112 87.6405 51.7415 87.7542 51.2864C87.8338 51.0931 88.0045 50.8086 88.4595 50.6949ZM96.2808 58.4592L96.0533 58.8574L98.7324 61.5366L101.804 50.365L98.1465 51.4059L96.2808 58.4592ZM95.3366 58.1407L97.0942 51.7074L90.6211 53.4252L95.3366 58.1407ZM89.9157 52.7199L90.3423 52.5208L97.39 50.638L97.7882 49.0681L88.7724 51.5765L89.9157 52.7199Z" fill="#9289FF"/>
</g>
<g id="nuxt_2" clip-path="url(#clip1_303_218)">
<path id="Vector_3" d="M25.4595 95.6949L34.5891 93.1295C34.6915 93.1409 35.1863 92.9873 35.5276 93.3286C35.6698 93.4708 35.812 93.7268 35.704 94.2444L35.4537 95.3365L38.6561 94.4321C38.7415 94.4037 39.2534 94.2899 39.5947 94.6312C39.7369 94.7734 39.9075 95.0578 39.7653 95.5413L36.6482 106.827C36.6198 106.912 36.4548 107.418 35.9998 107.532C35.8007 107.617 35.4878 107.589 35.1124 107.213L25.0671 97.1681C25.0102 97.1112 24.6405 96.7415 24.7542 96.2864C24.8338 96.0931 25.0045 95.8086 25.4595 95.6949ZM33.2808 103.459L33.0533 103.857L35.7324 106.537L38.804 95.365L35.1465 96.4059L33.2808 103.459ZM32.3366 103.141L34.0942 96.7074L27.6211 98.4252L32.3366 103.141ZM26.9157 97.7199L27.3423 97.5208L34.39 95.638L34.7882 94.0681L25.7724 96.5765L26.9157 97.7199Z" fill="#9289FF"/>
</g>
</g>
<defs>
<clipPath id="clip0_303_218">
<rect width="19.3063" height="19.3063" fill="white" transform="matrix(-0.707107 -0.707107 -0.707107 0.707107 111.303 52.6516)"/>
</clipPath>
<clipPath id="clip1_303_218">
<rect width="19.3063" height="19.3063" fill="white" transform="matrix(-0.707107 -0.707107 -0.707107 0.707107 48.3033 97.6516)"/>
</clipPath>
</defs>
</svg>
