<svg width="162" height="99" viewBox="0 0 162 99" fill="none" xmlns="http://www.w3.org/2000/svg">
<g id="Design2">
<g id="Frame 2">
<g id="Group 29">
<mask id="mask0_303_216" style="mask-type:alpha" maskUnits="userSpaceOnUse" x="0" y="0" width="99" height="99">
<circle id="Ellipse 1" cx="49.5" cy="49.5" r="49.5" fill="#C4C4C4"/>
</mask>
<g mask="url(#mask0_303_216)">
<line id="Line 23" y1="-0.5" x2="136.268" y2="-0.5" transform="matrix(0.646593 -0.762835 0.646593 0.762835 -24.75 103.95)" stroke="#FFE108"/>
<line id="Line 24" y1="-0.5" x2="136.268" y2="-0.5" transform="matrix(0.646593 -0.762835 0.646593 0.762835 27.72 103.95)" stroke="#FFE108"/>
<line id="Line 25" y1="-0.5" x2="136.268" y2="-0.5" transform="matrix(0.646593 -0.762835 0.646593 0.762835 4.95 103.95)" stroke="#FFE108"/>
<line id="Line 16" y1="-0.5" x2="136.268" y2="-0.5" transform="matrix(0.646593 -0.762835 0.646593 0.762835 -54.45 103.95)" stroke="#FFE108"/>
<line id="Line 26" y1="-0.5" x2="136.268" y2="-0.5" transform="matrix(0.646593 -0.762835 0.646593 0.762835 57.42 103.95)" stroke="#FFE108"/>
<line id="Line 27" y1="-0.5" x2="136.268" y2="-0.5" transform="matrix(0.646593 -0.762835 0.646593 0.762835 -9.9 103.95)" stroke="#FFE108"/>
<line id="Line 28" y1="-0.5" x2="136.268" y2="-0.5" transform="matrix(0.646593 -0.762835 0.646593 0.762835 42.57 103.95)" stroke="#FFE108"/>
<line id="Line 29" y1="-0.5" x2="136.268" y2="-0.5" transform="matrix(0.646593 -0.762835 0.646593 0.762835 19.8 103.95)" stroke="#FFE108"/>
<line id="Line 18" y1="-0.5" x2="136.268" y2="-0.5" transform="matrix(0.646593 -0.762835 0.646593 0.762835 -39.6 103.95)" stroke="#FFE108"/>
<line id="Line 31" y1="-0.5" x2="136.268" y2="-0.5" transform="matrix(0.646593 -0.762835 0.646593 0.762835 -16.83 103.95)" stroke="#FFE108"/>
<line id="Line 32" y1="-0.5" x2="136.268" y2="-0.5" transform="matrix(0.646593 -0.762835 0.646593 0.762835 35.64 103.95)" stroke="#FFE108"/>
<line id="Line 33" y1="-0.5" x2="136.268" y2="-0.5" transform="matrix(0.646593 -0.762835 0.646593 0.762835 12.87 103.95)" stroke="#FFE108"/>
<line id="Line 20" y1="-0.5" x2="136.268" y2="-0.5" transform="matrix(0.646593 -0.762835 0.646593 0.762835 -46.53 103.95)" stroke="#FFE108"/>
<line id="Line 34" y1="-0.5" x2="136.268" y2="-0.5" transform="matrix(0.646593 -0.762835 0.646593 0.762835 65.34 103.95)" stroke="#FFE108"/>
<line id="Line 35" y1="-0.5" x2="136.268" y2="-0.5" transform="matrix(0.646593 -0.762835 0.646593 0.762835 -1.98 103.95)" stroke="#FFE108"/>
<line id="Line 36" y1="-0.5" x2="136.268" y2="-0.5" transform="matrix(0.646593 -0.762835 0.646593 0.762835 50.49 103.95)" stroke="#FFE108"/>
<line id="Line 37" y1="-0.5" x2="136.268" y2="-0.5" transform="matrix(0.646593 -0.762835 0.646593 0.762835 27.72 103.95)" stroke="#FFE108"/>
<line id="Line 22" y1="-0.5" x2="136.268" y2="-0.5" transform="matrix(0.646593 -0.762835 0.646593 0.762835 -31.68 103.95)" stroke="#FFE108"/>
</g>
</g>
</g>
<g id="application-settings-outline">
<path id="Vector" d="M127.75 8H60.25C56.125 8 52.75 11.375 52.75 15.5V75.5C52.75 79.625 56.125 83 60.25 83H127.75C131.875 83 135.25 79.625 135.25 75.5V15.5C135.25 11.375 131.875 8 127.75 8ZM127.75 75.5H60.25V23H127.75V75.5ZM75.25 90.5H82.75V98H75.25V90.5ZM90.25 90.5H97.75V98H90.25V90.5ZM105.25 90.5H112.75V98H105.25V90.5Z" fill="#9289FF"/>
</g>
<g id="account">
<path id="Vector_2" d="M134.5 52.1667C136.931 52.1667 139.263 53.1324 140.982 54.8515C142.701 56.5706 143.667 58.9022 143.667 61.3333C143.667 63.7645 142.701 66.0961 140.982 67.8151C139.263 69.5342 136.931 70.5 134.5 70.5C132.069 70.5 129.737 69.5342 128.018 67.8151C126.299 66.0961 125.333 63.7645 125.333 61.3333C125.333 58.9022 126.299 56.5706 128.018 54.8515C129.737 53.1324 132.069 52.1667 134.5 52.1667V52.1667ZM134.5 75.0833C144.629 75.0833 152.833 79.1854 152.833 84.25V88.8333H116.167V84.25C116.167 79.1854 124.371 75.0833 134.5 75.0833Z" fill="#FFE108"/>
</g>
</g>
</svg>
