<svg width="105" height="91" viewBox="0 0 105 91" fill="none" xmlns="http://www.w3.org/2000/svg">
<g id="Design1">
<path id="Polygon 3" d="M15.6236 18.0106L3.52002 11.0226L15.6236 4.03459L15.6236 18.0106Z" fill="#FFE108"/>
<path id="Polygon 2" d="M43.7068 21.9833L24.4267 33.1146L24.4267 10.8519L43.7068 21.9833Z" fill="#FFE108"/>
<rect id="Rectangle 11" x="72" y="57" width="33" height="33" fill="#FFE108"/>
<g id="Frame 1">
<g id="Group 30">
<mask id="mask0_303_215" style="mask-type:alpha" maskUnits="userSpaceOnUse" x="10" y="0" width="91" height="91">
<rect id="Rectangle 10" x="10" width="91" height="91" fill="#9289FF"/>
</mask>
<g mask="url(#mask0_303_215)">
<line id="Line 38" y1="-0.5" x2="136.268" y2="-0.5" transform="matrix(0.646593 -0.762835 0.646593 0.762835 -2.29999 91.95)" stroke="#9289FF"/>
<line id="Line 39" y1="-0.5" x2="136.268" y2="-0.5" transform="matrix(0.646593 -0.762835 0.646593 0.762835 50.17 91.95)" stroke="#9289FF"/>
<line id="Line 40" y1="-0.5" x2="136.268" y2="-0.5" transform="matrix(0.646593 -0.762835 0.646593 0.762835 27.4 91.95)" stroke="#9289FF"/>
<line id="Line 43" y1="-0.5" x2="136.268" y2="-0.5" transform="matrix(0.646593 -0.762835 0.646593 0.762835 12.55 91.95)" stroke="#9289FF"/>
<line id="Line 44" y1="-0.5" x2="136.268" y2="-0.5" transform="matrix(0.646593 -0.762835 0.646593 0.762835 65.02 91.95)" stroke="#9289FF"/>
<line id="Line 45" y1="-0.5" x2="136.268" y2="-0.5" transform="matrix(0.646593 -0.762835 0.646593 0.762835 42.25 91.95)" stroke="#9289FF"/>
<line id="Line 46" y1="-0.5" x2="136.268" y2="-0.5" transform="matrix(0.646593 -0.762835 0.646593 0.762835 -17.15 91.95)" stroke="#9289FF"/>
<line id="Line 47" y1="-0.5" x2="136.268" y2="-0.5" transform="matrix(0.646593 -0.762835 0.646593 0.762835 5.62 91.95)" stroke="#9289FF"/>
<line id="Line 48" y1="-0.5" x2="136.268" y2="-0.5" transform="matrix(0.646593 -0.762835 0.646593 0.762835 58.09 91.95)" stroke="#9289FF"/>
<line id="Line 49" y1="-0.5" x2="136.268" y2="-0.5" transform="matrix(0.646593 -0.762835 0.646593 0.762835 35.32 91.95)" stroke="#9289FF"/>
<line id="Line 50" y1="-0.5" x2="136.268" y2="-0.5" transform="matrix(0.646593 -0.762835 0.646593 0.762835 -24.08 91.95)" stroke="#9289FF"/>
<line id="Line 52" y1="-0.5" x2="136.268" y2="-0.5" transform="matrix(0.646593 -0.762835 0.646593 0.762835 20.47 91.95)" stroke="#9289FF"/>
<line id="Line 54" y1="-0.5" x2="136.268" y2="-0.5" transform="matrix(0.646593 -0.762835 0.646593 0.762835 50.17 91.95)" stroke="#9289FF"/>
<line id="Line 55" y1="-0.5" x2="136.268" y2="-0.5" transform="matrix(0.646593 -0.762835 0.646593 0.762835 -9.22998 91.95)" stroke="#9289FF"/>
</g>
</g>
</g>
<g id="Frame 9">
<g id="Group 30_2">
<mask id="mask1_303_215" style="mask-type:alpha" maskUnits="userSpaceOnUse" x="10" y="0" width="91" height="91">
<rect id="Rectangle 10_2" x="10" width="91" height="91" fill="#9289FF"/>
</mask>
<g mask="url(#mask1_303_215)">
<line id="Line 38_2" y1="-0.5" x2="136.268" y2="-0.5" transform="matrix(0.646593 -0.762835 0.646593 0.762835 -2.29999 91.95)" stroke="#9289FF"/>
<line id="Line 39_2" y1="-0.5" x2="136.268" y2="-0.5" transform="matrix(0.646593 -0.762835 0.646593 0.762835 50.17 91.95)" stroke="#9289FF"/>
<line id="Line 40_2" y1="-0.5" x2="136.268" y2="-0.5" transform="matrix(0.646593 -0.762835 0.646593 0.762835 27.4 91.95)" stroke="#9289FF"/>
<line id="Line 43_2" y1="-0.5" x2="136.268" y2="-0.5" transform="matrix(0.646593 -0.762835 0.646593 0.762835 12.55 91.95)" stroke="#9289FF"/>
<line id="Line 44_2" y1="-0.5" x2="136.268" y2="-0.5" transform="matrix(0.646593 -0.762835 0.646593 0.762835 65.02 91.95)" stroke="#9289FF"/>
<line id="Line 45_2" y1="-0.5" x2="136.268" y2="-0.5" transform="matrix(0.646593 -0.762835 0.646593 0.762835 42.25 91.95)" stroke="#9289FF"/>
<line id="Line 46_2" y1="-0.5" x2="136.268" y2="-0.5" transform="matrix(0.646593 -0.762835 0.646593 0.762835 -17.15 91.95)" stroke="#9289FF"/>
<line id="Line 47_2" y1="-0.5" x2="136.268" y2="-0.5" transform="matrix(0.646593 -0.762835 0.646593 0.762835 5.62 91.95)" stroke="#9289FF"/>
<line id="Line 48_2" y1="-0.5" x2="136.268" y2="-0.5" transform="matrix(0.646593 -0.762835 0.646593 0.762835 58.09 91.95)" stroke="#9289FF"/>
<line id="Line 49_2" y1="-0.5" x2="136.268" y2="-0.5" transform="matrix(0.646593 -0.762835 0.646593 0.762835 35.32 91.95)" stroke="#9289FF"/>
<line id="Line 50_2" y1="-0.5" x2="136.268" y2="-0.5" transform="matrix(0.646593 -0.762835 0.646593 0.762835 -24.08 91.95)" stroke="#9289FF"/>
<line id="Line 52_2" y1="-0.5" x2="136.268" y2="-0.5" transform="matrix(0.646593 -0.762835 0.646593 0.762835 20.47 91.95)" stroke="#9289FF"/>
<line id="Line 54_2" y1="-0.5" x2="136.268" y2="-0.5" transform="matrix(0.646593 -0.762835 0.646593 0.762835 50.17 91.95)" stroke="#9289FF"/>
<line id="Line 55_2" y1="-0.5" x2="136.268" y2="-0.5" transform="matrix(0.646593 -0.762835 0.646593 0.762835 -9.22998 91.95)" stroke="#9289FF"/>
</g>
</g>
</g>
</g>
</svg>
