<svg width="170" height="94" viewBox="0 0 170 94" fill="none" xmlns="http://www.w3.org/2000/svg">
<g id="Design6">
<g id="Frame 6">
<g id="Group 34">
<mask id="mask0_303_220" style="mask-type:alpha" maskUnits="userSpaceOnUse" x="0" y="0" width="63" height="63">
<circle id="Ellipse 1" cx="31.5" cy="31.5" r="31.5" fill="#C4C4C4"/>
</mask>
<g mask="url(#mask0_303_220)">
<line id="Line 23" y1="-0.5" x2="86.716" y2="-0.5" transform="matrix(0.00817384 -0.999967 0.985116 0.171892 16.3867 88.7358)" stroke="#FFE108"/>
<line id="Line 24" y1="-0.5" x2="86.716" y2="-0.5" transform="matrix(0.00817384 -0.999967 0.985116 0.171892 42.0333 67.3549)" stroke="#FFE108"/>
<line id="Line 25" y1="-0.5" x2="86.716" y2="-0.5" transform="matrix(0.00817384 -0.999967 0.985116 0.171892 30.9037 76.6333)" stroke="#FFE108"/>
<line id="Line 16" y1="-0.5" x2="86.716" y2="-0.5" transform="matrix(0.00817384 -0.999967 0.985116 0.171892 1.86966 100.838)" stroke="#FFE108"/>
<line id="Line 26" y1="-0.5" x2="86.716" y2="-0.5" transform="matrix(0.00817384 -0.999967 0.985116 0.171892 56.5503 55.2526)" stroke="#FFE108"/>
<line id="Line 27" y1="-0.5" x2="86.716" y2="-0.5" transform="matrix(0.00817384 -0.999967 0.985116 0.171892 23.6451 82.6846)" stroke="#FFE108"/>
<line id="Line 28" y1="-0.5" x2="86.716" y2="-0.5" transform="matrix(0.00817384 -0.999967 0.985116 0.171892 49.2918 61.3037)" stroke="#FFE108"/>
<line id="Line 29" y1="-0.5" x2="86.716" y2="-0.5" transform="matrix(0.00817384 -0.999967 0.985116 0.171892 38.1621 70.5823)" stroke="#FFE108"/>
<line id="Line 18" y1="-0.5" x2="86.716" y2="-0.5" transform="matrix(0.00817384 -0.999967 0.985116 0.171892 9.12817 94.787)" stroke="#FFE108"/>
<line id="Line 31" y1="-0.5" x2="86.716" y2="-0.5" transform="matrix(0.00817384 -0.999967 0.985116 0.171892 20.2578 85.5084)" stroke="#FFE108"/>
<line id="Line 32" y1="-0.5" x2="86.716" y2="-0.5" transform="matrix(0.00817384 -0.999967 0.985116 0.171892 45.9045 64.1277)" stroke="#FFE108"/>
<line id="Line 33" y1="-0.5" x2="86.716" y2="-0.5" transform="matrix(0.00817384 -0.999967 0.985116 0.171892 34.7748 73.4061)" stroke="#FFE108"/>
<line id="Line 20" y1="-0.5" x2="86.716" y2="-0.5" transform="matrix(0.00817384 -0.999967 0.985116 0.171892 5.74088 97.6109)" stroke="#FFE108"/>
<line id="Line 34" y1="-0.5" x2="86.716" y2="-0.5" transform="matrix(0.00817384 -0.999967 0.985116 0.171892 60.4215 52.0253)" stroke="#FFE108"/>
<line id="Line 35" y1="-0.5" x2="86.716" y2="-0.5" transform="matrix(0.00817384 -0.999967 0.985116 0.171892 27.5163 79.4574)" stroke="#FFE108"/>
<line id="Line 36" y1="-0.5" x2="86.716" y2="-0.5" transform="matrix(0.00817384 -0.999967 0.985116 0.171892 53.163 58.0765)" stroke="#FFE108"/>
<line id="Line 37" y1="-0.5" x2="86.716" y2="-0.5" transform="matrix(0.00817384 -0.999967 0.985116 0.171892 42.0333 67.3549)" stroke="#FFE108"/>
<line id="Line 22" y1="-0.5" x2="86.716" y2="-0.5" transform="matrix(0.00817384 -0.999967 0.985116 0.171892 12.9994 91.5596)" stroke="#FFE108"/>
</g>
</g>
<g id="Group 35">
<mask id="mask1_303_220" style="mask-type:alpha" maskUnits="userSpaceOnUse" x="107" y="31" width="63" height="63">
<circle id="Ellipse 1_2" cx="138.5" cy="62.5" r="31.5" fill="#C4C4C4"/>
</mask>
<g mask="url(#mask1_303_220)">
<line id="Line 23_2" y1="-0.5" x2="86.716" y2="-0.5" transform="matrix(0.00817384 -0.999967 0.985116 0.171892 123.387 119.736)" stroke="#9289FF"/>
<line id="Line 24_2" y1="-0.5" x2="86.716" y2="-0.5" transform="matrix(0.00817384 -0.999967 0.985116 0.171892 149.033 98.3549)" stroke="#9289FF"/>
<line id="Line 25_2" y1="-0.5" x2="86.716" y2="-0.5" transform="matrix(0.00817384 -0.999967 0.985116 0.171892 137.904 107.633)" stroke="#9289FF"/>
<line id="Line 16_2" y1="-0.5" x2="86.716" y2="-0.5" transform="matrix(0.00817384 -0.999967 0.985116 0.171892 108.87 131.838)" stroke="#9289FF"/>
<line id="Line 26_2" y1="-0.5" x2="86.716" y2="-0.5" transform="matrix(0.00817384 -0.999967 0.985116 0.171892 163.55 86.2526)" stroke="#9289FF"/>
<line id="Line 27_2" y1="-0.5" x2="86.716" y2="-0.5" transform="matrix(0.00817384 -0.999967 0.985116 0.171892 130.645 113.685)" stroke="#9289FF"/>
<line id="Line 28_2" y1="-0.5" x2="86.716" y2="-0.5" transform="matrix(0.00817384 -0.999967 0.985116 0.171892 156.292 92.3037)" stroke="#9289FF"/>
<line id="Line 29_2" y1="-0.5" x2="86.716" y2="-0.5" transform="matrix(0.00817384 -0.999967 0.985116 0.171892 145.162 101.582)" stroke="#9289FF"/>
<line id="Line 18_2" y1="-0.5" x2="86.716" y2="-0.5" transform="matrix(0.00817384 -0.999967 0.985116 0.171892 116.128 125.787)" stroke="#9289FF"/>
<line id="Line 31_2" y1="-0.5" x2="86.716" y2="-0.5" transform="matrix(0.00817384 -0.999967 0.985116 0.171892 127.258 116.508)" stroke="#9289FF"/>
<line id="Line 32_2" y1="-0.5" x2="86.716" y2="-0.5" transform="matrix(0.00817384 -0.999967 0.985116 0.171892 152.905 95.1277)" stroke="#9289FF"/>
<line id="Line 33_2" y1="-0.5" x2="86.716" y2="-0.5" transform="matrix(0.00817384 -0.999967 0.985116 0.171892 141.775 104.406)" stroke="#9289FF"/>
<line id="Line 20_2" y1="-0.5" x2="86.716" y2="-0.5" transform="matrix(0.00817384 -0.999967 0.985116 0.171892 112.741 128.611)" stroke="#9289FF"/>
<line id="Line 34_2" y1="-0.5" x2="86.716" y2="-0.5" transform="matrix(0.00817384 -0.999967 0.985116 0.171892 167.422 83.0253)" stroke="#9289FF"/>
<line id="Line 35_2" y1="-0.5" x2="86.716" y2="-0.5" transform="matrix(0.00817384 -0.999967 0.985116 0.171892 134.516 110.457)" stroke="#9289FF"/>
<line id="Line 36_2" y1="-0.5" x2="86.716" y2="-0.5" transform="matrix(0.00817384 -0.999967 0.985116 0.171892 160.163 89.0765)" stroke="#9289FF"/>
<line id="Line 37_2" y1="-0.5" x2="86.716" y2="-0.5" transform="matrix(0.00817384 -0.999967 0.985116 0.171892 149.033 98.3549)" stroke="#9289FF"/>
<line id="Line 22_2" y1="-0.5" x2="86.716" y2="-0.5" transform="matrix(0.00817384 -0.999967 0.985116 0.171892 119.999 122.56)" stroke="#9289FF"/>
</g>
</g>
</g>
<g id="truck-check">
<path id="Vector" d="M45.75 11.3333H81.9167V21.6667H89.6667L97.4167 32V44.9167H92.25C92.25 46.9721 91.4335 48.9433 89.9801 50.3967C88.5267 51.8501 86.5554 52.6667 84.5 52.6667C82.4446 52.6667 80.4733 51.8501 79.0199 50.3967C77.5665 48.9433 76.75 46.9721 76.75 44.9167H61.25C61.25 46.9721 60.4335 48.9433 58.9801 50.3967C57.5267 51.8501 55.5554 52.6667 53.5 52.6667C51.4446 52.6667 49.4733 51.8501 48.0199 50.3967C46.5665 48.9433 45.75 46.9721 45.75 44.9167H40.5833V16.5C40.5833 13.6325 42.9083 11.3333 45.75 11.3333ZM81.9167 25.5417V32H93.4642L88.375 25.5417H81.9167ZM53.5 41.0417C52.4723 41.0417 51.4867 41.4499 50.76 42.1766C50.0333 42.9033 49.625 43.889 49.625 44.9167C49.625 45.9444 50.0333 46.93 50.76 47.6567C51.4867 48.3834 52.4723 48.7917 53.5 48.7917C54.5277 48.7917 55.5133 48.3834 56.24 47.6567C56.9668 46.93 57.375 45.9444 57.375 44.9167C57.375 43.889 56.9668 42.9033 56.24 42.1766C55.5133 41.4499 54.5277 41.0417 53.5 41.0417ZM84.5 41.0417C83.4723 41.0417 82.4867 41.4499 81.76 42.1766C81.0333 42.9033 80.625 43.889 80.625 44.9167C80.625 45.9444 81.0333 46.93 81.76 47.6567C82.4867 48.3834 83.4723 48.7917 84.5 48.7917C85.5277 48.7917 86.5133 48.3834 87.24 47.6567C87.9667 46.93 88.375 45.9444 88.375 44.9167C88.375 43.889 87.9667 42.9033 87.24 42.1766C86.5133 41.4499 85.5277 41.0417 84.5 41.0417ZM58.6667 37.1667L74.1667 21.6667L70.5242 17.9983L58.6667 29.8558L53.2675 24.4567L49.625 28.125L58.6667 37.1667Z" fill="#9289FF"/>
</g>
<g id="truck-check_2">
<path id="Vector_2" d="M84.75 37.3333H120.917V47.6667H128.667L136.417 58V70.9167H131.25C131.25 72.9721 130.433 74.9433 128.98 76.3967C127.527 77.8501 125.555 78.6667 123.5 78.6667C121.445 78.6667 119.473 77.8501 118.02 76.3967C116.567 74.9433 115.75 72.9721 115.75 70.9167H100.25C100.25 72.9721 99.4335 74.9433 97.9801 76.3967C96.5267 77.8501 94.5554 78.6667 92.5 78.6667C90.4446 78.6667 88.4733 77.8501 87.0199 76.3967C85.5665 74.9433 84.75 72.9721 84.75 70.9167H79.5833V42.5C79.5833 39.6325 81.9083 37.3333 84.75 37.3333ZM120.917 51.5417V58H132.464L127.375 51.5417H120.917ZM92.5 67.0417C91.4723 67.0417 90.4867 67.4499 89.76 68.1766C89.0333 68.9033 88.625 69.889 88.625 70.9167C88.625 71.9444 89.0333 72.93 89.76 73.6567C90.4867 74.3834 91.4723 74.7917 92.5 74.7917C93.5277 74.7917 94.5133 74.3834 95.24 73.6567C95.9668 72.93 96.375 71.9444 96.375 70.9167C96.375 69.889 95.9668 68.9033 95.24 68.1766C94.5133 67.4499 93.5277 67.0417 92.5 67.0417ZM123.5 67.0417C122.472 67.0417 121.487 67.4499 120.76 68.1766C120.033 68.9033 119.625 69.889 119.625 70.9167C119.625 71.9444 120.033 72.93 120.76 73.6567C121.487 74.3834 122.472 74.7917 123.5 74.7917C124.528 74.7917 125.513 74.3834 126.24 73.6567C126.967 72.93 127.375 71.9444 127.375 70.9167C127.375 69.889 126.967 68.9033 126.24 68.1766C125.513 67.4499 124.528 67.0417 123.5 67.0417ZM97.6667 63.1667L113.167 47.6667L109.524 43.9983L97.6667 55.8558L92.2675 50.4567L88.625 54.125L97.6667 63.1667Z" fill="#FFE108"/>
</g>
</g>
</svg>
