<svg width="106" height="91" viewBox="0 0 106 91" fill="none" xmlns="http://www.w3.org/2000/svg">
<g id="Design5">
<g id="Frame 5">
<g id="Group 36">
<mask id="mask0_303_219" style="mask-type:alpha" maskUnits="userSpaceOnUse" x="15" y="0" width="91" height="91">
<rect id="Rectangle 10" x="106" y="7.62939e-06" width="91" height="91" transform="rotate(90 106 7.62939e-06)" fill="#9289FF"/>
</mask>
<g mask="url(#mask0_303_219)">
<line id="Line 38" y1="-0.5" x2="136.268" y2="-0.5" transform="matrix(0.762835 0.646593 -0.762835 0.646593 14.05 -12.3)" stroke="#9289FF"/>
<line id="Line 39" y1="-0.5" x2="136.268" y2="-0.5" transform="matrix(0.762835 0.646593 -0.762835 0.646593 14.05 40.17)" stroke="#9289FF"/>
<line id="Line 40" y1="-0.5" x2="136.268" y2="-0.5" transform="matrix(0.762835 0.646593 -0.762835 0.646593 14.0501 17.4)" stroke="#9289FF"/>
<line id="Line 43" y1="-0.5" x2="136.268" y2="-0.5" transform="matrix(0.762835 0.646593 -0.762835 0.646593 14.05 2.54999)" stroke="#9289FF"/>
<line id="Line 44" y1="-0.5" x2="136.268" y2="-0.5" transform="matrix(0.762835 0.646593 -0.762835 0.646593 14.0501 55.02)" stroke="#9289FF"/>
<line id="Line 45" y1="-0.5" x2="136.268" y2="-0.5" transform="matrix(0.762835 0.646593 -0.762835 0.646593 14.0501 32.25)" stroke="#9289FF"/>
<line id="Line 46" y1="-0.5" x2="136.268" y2="-0.5" transform="matrix(0.762835 0.646593 -0.762835 0.646593 14.0501 -27.15)" stroke="#9289FF"/>
<line id="Line 47" y1="-0.5" x2="136.268" y2="-0.5" transform="matrix(0.762835 0.646593 -0.762835 0.646593 14.0501 -4.38)" stroke="#9289FF"/>
<line id="Line 48" y1="-0.5" x2="136.268" y2="-0.5" transform="matrix(0.762835 0.646593 -0.762835 0.646593 14.0501 48.09)" stroke="#9289FF"/>
<line id="Line 49" y1="-0.5" x2="136.268" y2="-0.5" transform="matrix(0.762835 0.646593 -0.762835 0.646593 14.05 25.32)" stroke="#9289FF"/>
<line id="Line 50" y1="-0.5" x2="136.268" y2="-0.5" transform="matrix(0.762835 0.646593 -0.762835 0.646593 14.05 -34.08)" stroke="#9289FF"/>
<line id="Line 52" y1="-0.5" x2="136.268" y2="-0.5" transform="matrix(0.762835 0.646593 -0.762835 0.646593 14.0501 10.47)" stroke="#9289FF"/>
<line id="Line 54" y1="-0.5" x2="136.268" y2="-0.5" transform="matrix(0.762835 0.646593 -0.762835 0.646593 14.05 40.17)" stroke="#9289FF"/>
<line id="Line 55" y1="-0.5" x2="136.268" y2="-0.5" transform="matrix(0.762835 0.646593 -0.762835 0.646593 14.0501 -19.23)" stroke="#9289FF"/>
</g>
</g>
</g>
<g id="ab-testing">
<path id="Vector" d="M9.5 38.75C8.24022 38.75 7.03204 39.2504 6.14124 40.1412C5.25044 41.032 4.75 42.2402 4.75 43.5V62.5H9.5V53H14.25V62.5H19V43.5C19 42.2402 18.4996 41.032 17.6088 40.1412C16.718 39.2504 15.5098 38.75 14.25 38.75H9.5ZM9.5 43.5H14.25V48.25H9.5V43.5ZM52.25 70.8125V67.25C52.25 65.9902 51.7495 64.782 50.8588 63.8912C49.968 63.0004 48.7598 62.5 47.5 62.5H38V86.25H47.5C48.7598 86.25 49.968 85.7495 50.8588 84.8588C51.7495 83.968 52.25 82.7598 52.25 81.5V77.9375C52.226 77.0002 51.8429 76.108 51.1799 75.445C50.517 74.7821 49.6248 74.399 48.6875 74.375C49.6248 74.351 50.517 73.9679 51.1799 73.3049C51.8429 72.642 52.226 71.7498 52.25 70.8125ZM47.5 81.5H42.75V76.75H47.5V81.5ZM47.5 72H42.75V67.25H47.5V72ZM13.7512 85.3237L9.99875 82.4262L43.2487 39.6763L47.0012 42.5737L13.7512 85.3237Z" fill="#FFE108"/>
</g>
</g>
</svg>
